M48
; DRILL file {KiCad 5.1.9+dfsg1-1} date Sat Jul  3 18:11:32 2021
; FORMAT={-:-/ absolute / inch / decimal}
; #@! TF.CreationDate,2021-07-03T18:11:32+01:00
; #@! TF.GenerationSoftware,Kicad,Pcbnew,5.1.9+dfsg1-1
; #@! TF.FileFunction,Plated,1,2,PTH
FMAT,2
INCH
T1C0.0315
T2C0.0354
T3C0.0394
T4C0.1260
%
G90
G05
T1
X5.4724Y-2.9429
X5.4724Y-3.1693
X5.4724Y-3.3957
X5.4724Y-3.6319
X5.4724Y-3.8583
X5.4823Y-2.687
X5.561Y-4.0551
X5.561Y-4.1551
X5.561Y-4.2551
X5.561Y-4.3551
X5.561Y-4.4551
X5.561Y-4.5551
X5.561Y-4.6551
X5.561Y-4.7551
X5.561Y-4.8551
X5.561Y-4.9551
X5.861Y-4.0551
X5.861Y-4.1551
X5.861Y-4.2551
X5.861Y-4.3551
X5.861Y-4.4551
X5.861Y-4.5551
X5.861Y-4.6551
X5.861Y-4.7551
X5.861Y-4.8551
X5.861Y-4.9551
X5.9724Y-2.9429
X5.9724Y-3.1693
X5.9724Y-3.3957
X5.9724Y-3.6319
X5.9724Y-3.8583
X5.9823Y-2.687
T2
X6.1319Y-3.4843
X6.1402Y-3.8484
X6.1402Y-4.2126
X6.1402Y-4.5768
X6.1417Y-3.1201
X6.2319Y-3.4843
X6.2402Y-3.8484
X6.2402Y-4.2126
X6.2402Y-4.5768
X6.2417Y-3.1201
T3
X5.2248Y-2.8866
X5.2248Y-2.9866
X5.2248Y-3.0866
X5.2248Y-3.1866
X5.2248Y-3.2866
X5.2248Y-3.3866
X5.2248Y-3.4866
X5.2248Y-3.5866
X5.2248Y-3.6866
X5.2248Y-3.7866
X5.2248Y-3.8866
X5.2248Y-3.9866
X5.2248Y-4.0866
X5.2248Y-4.1866
X5.2248Y-4.2866
X5.2248Y-4.3866
X5.2248Y-4.4866
X5.2248Y-4.5866
X5.2248Y-4.6866
X5.2248Y-4.7866
X5.3248Y-2.8866
X5.3248Y-2.9866
X5.3248Y-3.0866
X5.3248Y-3.1866
X5.3248Y-3.2866
X5.3248Y-3.3866
X5.3248Y-3.4866
X5.3248Y-3.5866
X5.3248Y-3.6866
X5.3248Y-3.7866
X5.3248Y-3.8866
X5.3248Y-3.9866
X5.3248Y-4.0866
X5.3248Y-4.1866
X5.3248Y-4.2866
X5.3248Y-4.3866
X5.3248Y-4.4866
X5.3248Y-4.5866
X5.3248Y-4.6866
X5.3248Y-4.7866
X6.4862Y-3.622
X6.4862Y-3.7311
X6.4862Y-3.8402
X6.4862Y-3.9492
X6.4862Y-4.0583
X6.598Y-3.6766
X6.598Y-3.7856
X6.598Y-3.8947
X6.598Y-4.0037
T4
X6.5421Y-3.348
X6.5421Y-4.3323
T0
M30
