M48
; DRILL file {KiCad 5.1.9+dfsg1-1} date Sun May 30 15:36:23 2021
; FORMAT={-:-/ absolute / inch / decimal}
; #@! TF.CreationDate,2021-05-30T15:36:23+01:00
; #@! TF.GenerationSoftware,Kicad,Pcbnew,5.1.9+dfsg1-1
; #@! TF.FileFunction,Plated,1,2,PTH
FMAT,2
INCH
T1C0.0276
T2C0.0315
T3C0.0354
T4C0.0394
%
G90
G05
T1
X5.4677Y-3.0315
X5.4724Y-2.7165
X5.4724Y-2.874
X5.4874Y-4.9213
X5.4874Y-5.0394
X5.7677Y-3.0315
X5.7724Y-2.7165
X5.7724Y-2.874
X5.7874Y-4.9213
X5.7874Y-5.0394
X5.9008Y-2.9724
X6.2008Y-2.9724
T2
X5.4724Y-3.189
X5.4724Y-3.289
X5.4724Y-3.389
X5.4724Y-3.489
X5.4724Y-3.589
X5.4724Y-3.689
X5.4724Y-3.789
X5.4724Y-3.889
X5.4724Y-3.989
X5.4724Y-4.089
X5.7724Y-3.189
X5.7724Y-3.289
X5.7724Y-3.389
X5.7724Y-3.489
X5.7724Y-3.589
X5.7724Y-3.689
X5.7724Y-3.789
X5.7724Y-3.889
X5.7724Y-3.989
X5.7724Y-4.089
T3
X5.5496Y-4.3898
X5.5496Y-4.7047
X5.6496Y-4.3898
X5.6496Y-4.7047
X6.022Y-3.3071
X6.022Y-3.622
X6.022Y-3.937
X6.122Y-3.3071
X6.122Y-3.622
X6.122Y-3.937
T4
X5.2512Y-2.8894
X5.2512Y-2.9894
X5.2512Y-3.0894
X5.2512Y-3.1894
X5.2512Y-3.2894
X5.2512Y-3.3894
X5.2512Y-3.4894
X5.2512Y-3.5894
X5.2512Y-3.6894
X5.2512Y-3.7894
X5.2512Y-3.8894
X5.2512Y-3.9894
X5.2512Y-4.0894
X5.2512Y-4.1894
X5.2512Y-4.2894
X5.2512Y-4.3894
X5.2512Y-4.4894
X5.2512Y-4.5894
X5.2512Y-4.6894
X5.2512Y-4.7894
X5.3512Y-2.8894
X5.3512Y-2.9894
X5.3512Y-3.0894
X5.3512Y-3.1894
X5.3512Y-3.2894
X5.3512Y-3.3894
X5.3512Y-3.4894
X5.3512Y-3.5894
X5.3512Y-3.6894
X5.3512Y-3.7894
X5.3512Y-3.8894
X5.3512Y-3.9894
X5.3512Y-4.0894
X5.3512Y-4.1894
X5.3512Y-4.2894
X5.3512Y-4.3894
X5.3512Y-4.4894
X5.3512Y-4.5894
X5.3512Y-4.6894
X5.3512Y-4.7894
X5.8386Y-4.248
X5.8386Y-4.3571
X5.8386Y-4.4661
X5.8386Y-4.5752
X5.8386Y-4.6843
X5.9504Y-4.3026
X5.9504Y-4.4116
X5.9504Y-4.5207
X5.9504Y-4.6297
T0
M30
