%TF.GenerationSoftware,KiCad,Pcbnew,5.1.9+dfsg1-1*%
%TF.CreationDate,2021-05-30T15:35:39+01:00*%
%TF.ProjectId,sjspi,736a7370-692e-46b6-9963-61645f706362,v0.1*%
%TF.SameCoordinates,Original*%
%TF.FileFunction,Soldermask,Bot*%
%TF.FilePolarity,Negative*%
%FSLAX46Y46*%
G04 Gerber Fmt 4.6, Leading zero omitted, Abs format (unit mm)*
G04 Created by KiCad (PCBNEW 5.1.9+dfsg1-1) date 2021-05-30 15:35:39*
%MOMM*%
%LPD*%
G01*
G04 APERTURE LIST*
%ADD10C,1.901600*%
%ADD11O,1.801600X1.801600*%
%ADD12C,1.701600*%
%ADD13C,1.501600*%
%ADD14O,1.501600X1.501600*%
%ADD15O,1.701600X1.701600*%
G04 APERTURE END LIST*
%TO.C,D1*%
G36*
G01*
X156450800Y-83100000D02*
X156450800Y-84900000D01*
G75*
G02*
X156400000Y-84950800I-50800J0D01*
G01*
X154600000Y-84950800D01*
G75*
G02*
X154549200Y-84900000I0J50800D01*
G01*
X154549200Y-83100000D01*
G75*
G02*
X154600000Y-83049200I50800J0D01*
G01*
X156400000Y-83049200D01*
G75*
G02*
X156450800Y-83100000I0J-50800D01*
G01*
G37*
D10*
X152960000Y-84000000D03*
%TD*%
%TO.C,D2*%
X152960000Y-92000000D03*
G36*
G01*
X156450800Y-91100000D02*
X156450800Y-92900000D01*
G75*
G02*
X156400000Y-92950800I-50800J0D01*
G01*
X154600000Y-92950800D01*
G75*
G02*
X154549200Y-92900000I0J50800D01*
G01*
X154549200Y-91100000D01*
G75*
G02*
X154600000Y-91049200I50800J0D01*
G01*
X156400000Y-91049200D01*
G75*
G02*
X156450800Y-91100000I0J-50800D01*
G01*
G37*
%TD*%
%TO.C,D3*%
G36*
G01*
X156450800Y-99100000D02*
X156450800Y-100900000D01*
G75*
G02*
X156400000Y-100950800I-50800J0D01*
G01*
X154600000Y-100950800D01*
G75*
G02*
X154549200Y-100900000I0J50800D01*
G01*
X154549200Y-99100000D01*
G75*
G02*
X154600000Y-99049200I50800J0D01*
G01*
X156400000Y-99049200D01*
G75*
G02*
X156450800Y-99100000I0J-50800D01*
G01*
G37*
X152960000Y-100000000D03*
%TD*%
%TO.C,D4*%
X140960000Y-119500000D03*
G36*
G01*
X144450800Y-118600000D02*
X144450800Y-120400000D01*
G75*
G02*
X144400000Y-120450800I-50800J0D01*
G01*
X142600000Y-120450800D01*
G75*
G02*
X142549200Y-120400000I0J50800D01*
G01*
X142549200Y-118600000D01*
G75*
G02*
X142600000Y-118549200I50800J0D01*
G01*
X144400000Y-118549200D01*
G75*
G02*
X144450800Y-118600000I0J-50800D01*
G01*
G37*
%TD*%
%TO.C,D5*%
G36*
G01*
X144450800Y-110600000D02*
X144450800Y-112400000D01*
G75*
G02*
X144400000Y-112450800I-50800J0D01*
G01*
X142600000Y-112450800D01*
G75*
G02*
X142549200Y-112400000I0J50800D01*
G01*
X142549200Y-110600000D01*
G75*
G02*
X142600000Y-110549200I50800J0D01*
G01*
X144400000Y-110549200D01*
G75*
G02*
X144450800Y-110600000I0J-50800D01*
G01*
G37*
X140960000Y-111500000D03*
%TD*%
%TO.C,J1*%
G36*
G01*
X134280800Y-72540000D02*
X134280800Y-74240000D01*
G75*
G02*
X134230000Y-74290800I-50800J0D01*
G01*
X132530000Y-74290800D01*
G75*
G02*
X132479200Y-74240000I0J50800D01*
G01*
X132479200Y-72540000D01*
G75*
G02*
X132530000Y-72489200I50800J0D01*
G01*
X134230000Y-72489200D01*
G75*
G02*
X134280800Y-72540000I0J-50800D01*
G01*
G37*
D11*
X135920000Y-73390000D03*
X133380000Y-75930000D03*
X135920000Y-75930000D03*
X133380000Y-78470000D03*
X135920000Y-78470000D03*
X133380000Y-81010000D03*
X135920000Y-81010000D03*
X133380000Y-83550000D03*
X135920000Y-83550000D03*
X133380000Y-86090000D03*
X135920000Y-86090000D03*
X133380000Y-88630000D03*
X135920000Y-88630000D03*
X133380000Y-91170000D03*
X135920000Y-91170000D03*
X133380000Y-93710000D03*
X135920000Y-93710000D03*
X133380000Y-96250000D03*
X135920000Y-96250000D03*
X133380000Y-98790000D03*
X135920000Y-98790000D03*
X133380000Y-101330000D03*
X135920000Y-101330000D03*
X133380000Y-103870000D03*
X135920000Y-103870000D03*
X133380000Y-106410000D03*
X135920000Y-106410000D03*
X133380000Y-108950000D03*
X135920000Y-108950000D03*
X133380000Y-111490000D03*
X135920000Y-111490000D03*
X133380000Y-114030000D03*
X135920000Y-114030000D03*
X133380000Y-116570000D03*
X135920000Y-116570000D03*
X133380000Y-119110000D03*
X135920000Y-119110000D03*
X133380000Y-121650000D03*
X135920000Y-121650000D03*
%TD*%
%TO.C,J2*%
G36*
G01*
X149100000Y-108750800D02*
X147500000Y-108750800D01*
G75*
G02*
X147449200Y-108700000I0J50800D01*
G01*
X147449200Y-107100000D01*
G75*
G02*
X147500000Y-107049200I50800J0D01*
G01*
X149100000Y-107049200D01*
G75*
G02*
X149150800Y-107100000I0J-50800D01*
G01*
X149150800Y-108700000D01*
G75*
G02*
X149100000Y-108750800I-50800J0D01*
G01*
G37*
D12*
X148300000Y-110670000D03*
X148300000Y-113440000D03*
X148300000Y-116210000D03*
X148300000Y-118980000D03*
X151140000Y-109285000D03*
X151140000Y-112055000D03*
X151140000Y-114825000D03*
X151140000Y-117595000D03*
%TD*%
D13*
%TO.C,R1*%
X146620000Y-69000000D03*
D14*
X139000000Y-69000000D03*
%TD*%
%TO.C,R2*%
X139000000Y-73000000D03*
D13*
X146620000Y-73000000D03*
%TD*%
%TO.C,R3*%
X146500000Y-77000000D03*
D14*
X138880000Y-77000000D03*
%TD*%
%TO.C,R4*%
X139380000Y-125000000D03*
D13*
X147000000Y-125000000D03*
%TD*%
%TO.C,R5*%
X147000000Y-128000000D03*
D14*
X139380000Y-128000000D03*
%TD*%
%TO.C,R6*%
X149880000Y-75500000D03*
D13*
X157500000Y-75500000D03*
%TD*%
%TO.C,U1*%
G36*
G01*
X138149200Y-81800000D02*
X138149200Y-80200000D01*
G75*
G02*
X138200000Y-80149200I50800J0D01*
G01*
X139800000Y-80149200D01*
G75*
G02*
X139850800Y-80200000I0J-50800D01*
G01*
X139850800Y-81800000D01*
G75*
G02*
X139800000Y-81850800I-50800J0D01*
G01*
X138200000Y-81850800D01*
G75*
G02*
X138149200Y-81800000I0J50800D01*
G01*
G37*
D15*
X146620000Y-103860000D03*
X139000000Y-83540000D03*
X146620000Y-101320000D03*
X139000000Y-86080000D03*
X146620000Y-98780000D03*
X139000000Y-88620000D03*
X146620000Y-96240000D03*
X139000000Y-91160000D03*
X146620000Y-93700000D03*
X139000000Y-93700000D03*
X146620000Y-91160000D03*
X139000000Y-96240000D03*
X146620000Y-88620000D03*
X139000000Y-98780000D03*
X146620000Y-86080000D03*
X139000000Y-101320000D03*
X146620000Y-83540000D03*
X139000000Y-103860000D03*
X146620000Y-81000000D03*
%TD*%
M02*
