%TF.GenerationSoftware,KiCad,Pcbnew,5.1.9+dfsg1-1*%
%TF.CreationDate,2021-06-27T14:33:47+01:00*%
%TF.ProjectId,sjspi,736a7370-692e-46b6-9963-61645f706362,v0.3*%
%TF.SameCoordinates,Original*%
%TF.FileFunction,Copper,L1,Top*%
%TF.FilePolarity,Positive*%
%FSLAX46Y46*%
G04 Gerber Fmt 4.6, Leading zero omitted, Abs format (unit mm)*
G04 Created by KiCad (PCBNEW 5.1.9+dfsg1-1) date 2021-06-27 14:33:47*
%MOMM*%
%LPD*%
G01*
G04 APERTURE LIST*
%TA.AperFunction,NonConductor*%
%ADD10C,0.300000*%
%TD*%
%TA.AperFunction,ComponentPad*%
%ADD11R,1.600000X1.600000*%
%TD*%
%TA.AperFunction,ComponentPad*%
%ADD12O,1.600000X1.600000*%
%TD*%
%TA.AperFunction,ComponentPad*%
%ADD13R,1.800000X1.800000*%
%TD*%
%TA.AperFunction,ComponentPad*%
%ADD14C,1.800000*%
%TD*%
%TA.AperFunction,ComponentPad*%
%ADD15R,1.700000X1.700000*%
%TD*%
%TA.AperFunction,ComponentPad*%
%ADD16O,1.700000X1.700000*%
%TD*%
%TA.AperFunction,ComponentPad*%
%ADD17C,1.600000*%
%TD*%
%TA.AperFunction,ComponentPad*%
%ADD18C,4.000000*%
%TD*%
%TA.AperFunction,Conductor*%
%ADD19C,0.254000*%
%TD*%
%TA.AperFunction,Conductor*%
%ADD20C,0.100000*%
%TD*%
G04 APERTURE END LIST*
D10*
X164607142Y-121428571D02*
X164964285Y-122428571D01*
X165321428Y-121428571D01*
X166178571Y-120928571D02*
X166321428Y-120928571D01*
X166464285Y-121000000D01*
X166535714Y-121071428D01*
X166607142Y-121214285D01*
X166678571Y-121500000D01*
X166678571Y-121857142D01*
X166607142Y-122142857D01*
X166535714Y-122285714D01*
X166464285Y-122357142D01*
X166321428Y-122428571D01*
X166178571Y-122428571D01*
X166035714Y-122357142D01*
X165964285Y-122285714D01*
X165892857Y-122142857D01*
X165821428Y-121857142D01*
X165821428Y-121500000D01*
X165892857Y-121214285D01*
X165964285Y-121071428D01*
X166035714Y-121000000D01*
X166178571Y-120928571D01*
X167321428Y-122285714D02*
X167392857Y-122357142D01*
X167321428Y-122428571D01*
X167250000Y-122357142D01*
X167321428Y-122285714D01*
X167321428Y-122428571D01*
X167892857Y-120928571D02*
X168821428Y-120928571D01*
X168321428Y-121500000D01*
X168535714Y-121500000D01*
X168678571Y-121571428D01*
X168750000Y-121642857D01*
X168821428Y-121785714D01*
X168821428Y-122142857D01*
X168750000Y-122285714D01*
X168678571Y-122357142D01*
X168535714Y-122428571D01*
X168107142Y-122428571D01*
X167964285Y-122357142D01*
X167892857Y-122285714D01*
X304107142Y-28178571D02*
X304464285Y-29178571D01*
X304821428Y-28178571D01*
X305678571Y-27678571D02*
X305821428Y-27678571D01*
X305964285Y-27750000D01*
X306035714Y-27821428D01*
X306107142Y-27964285D01*
X306178571Y-28250000D01*
X306178571Y-28607142D01*
X306107142Y-28892857D01*
X306035714Y-29035714D01*
X305964285Y-29107142D01*
X305821428Y-29178571D01*
X305678571Y-29178571D01*
X305535714Y-29107142D01*
X305464285Y-29035714D01*
X305392857Y-28892857D01*
X305321428Y-28607142D01*
X305321428Y-28250000D01*
X305392857Y-27964285D01*
X305464285Y-27821428D01*
X305535714Y-27750000D01*
X305678571Y-27678571D01*
X306821428Y-29035714D02*
X306892857Y-29107142D01*
X306821428Y-29178571D01*
X306750000Y-29107142D01*
X306821428Y-29035714D01*
X306821428Y-29178571D01*
X307464285Y-27821428D02*
X307535714Y-27750000D01*
X307678571Y-27678571D01*
X308035714Y-27678571D01*
X308178571Y-27750000D01*
X308250000Y-27821428D01*
X308321428Y-27964285D01*
X308321428Y-28107142D01*
X308250000Y-28321428D01*
X307392857Y-29178571D01*
X308321428Y-29178571D01*
D11*
%TO.P,U1,1*%
%TO.N,VCC*%
X141250000Y-103000000D03*
D12*
%TO.P,U1,11*%
%TO.N,N/C*%
X148870000Y-125860000D03*
%TO.P,U1,2*%
%TO.N,Net-(J1-Pad37)*%
X141250000Y-105540000D03*
%TO.P,U1,12*%
%TO.N,N/C*%
X148870000Y-123320000D03*
%TO.P,U1,3*%
%TO.N,Net-(J1-Pad31)*%
X141250000Y-108080000D03*
%TO.P,U1,13*%
%TO.N,N/C*%
X148870000Y-120780000D03*
%TO.P,U1,4*%
%TO.N,Net-(J1-Pad29)*%
X141250000Y-110620000D03*
%TO.P,U1,14*%
%TO.N,Net-(R5-Pad2)*%
X148870000Y-118240000D03*
%TO.P,U1,5*%
%TO.N,Net-(J1-Pad15)*%
X141250000Y-113160000D03*
%TO.P,U1,15*%
%TO.N,Net-(R4-Pad2)*%
X148870000Y-115700000D03*
%TO.P,U1,6*%
%TO.N,Net-(J1-Pad13)*%
X141250000Y-115700000D03*
%TO.P,U1,16*%
%TO.N,Net-(R3-Pad2)*%
X148870000Y-113160000D03*
%TO.P,U1,7*%
%TO.N,N/C*%
X141250000Y-118240000D03*
%TO.P,U1,17*%
%TO.N,Net-(R2-Pad2)*%
X148870000Y-110620000D03*
%TO.P,U1,8*%
%TO.N,N/C*%
X141250000Y-120780000D03*
%TO.P,U1,18*%
%TO.N,Net-(R1-Pad2)*%
X148870000Y-108080000D03*
%TO.P,U1,9*%
%TO.N,N/C*%
X141250000Y-123320000D03*
%TO.P,U1,19*%
%TO.N,GND*%
X148870000Y-105540000D03*
%TO.P,U1,10*%
X141250000Y-125860000D03*
%TO.P,U1,20*%
%TO.N,VCC*%
X148870000Y-103000000D03*
%TD*%
D13*
%TO.P,D1,1*%
%TO.N,Net-(D1-Pad1)*%
X158540000Y-79250000D03*
D14*
%TO.P,D1,2*%
%TO.N,Net-(D1-Pad2)*%
X156000000Y-79250000D03*
%TD*%
%TO.P,D2,2*%
%TO.N,Net-(D2-Pad2)*%
X155750000Y-88500000D03*
D13*
%TO.P,D2,1*%
%TO.N,Net-(D2-Pad1)*%
X158290000Y-88500000D03*
%TD*%
%TO.P,D3,1*%
%TO.N,Net-(D3-Pad1)*%
X158500000Y-97750000D03*
D14*
%TO.P,D3,2*%
%TO.N,Net-(D3-Pad2)*%
X155960000Y-97750000D03*
%TD*%
%TO.P,D4,2*%
%TO.N,Net-(D4-Pad2)*%
X155960000Y-107000000D03*
D13*
%TO.P,D4,1*%
%TO.N,Net-(D4-Pad1)*%
X158500000Y-107000000D03*
%TD*%
%TO.P,D5,1*%
%TO.N,Net-(D5-Pad1)*%
X158500000Y-116250000D03*
D14*
%TO.P,D5,2*%
%TO.N,Net-(D5-Pad2)*%
X155960000Y-116250000D03*
%TD*%
D15*
%TO.P,J1,1*%
%TO.N,VCC*%
X135250000Y-121580000D03*
D16*
%TO.P,J1,2*%
%TO.N,N/C*%
X132710000Y-121580000D03*
%TO.P,J1,3*%
X135250000Y-119040000D03*
%TO.P,J1,4*%
X132710000Y-119040000D03*
%TO.P,J1,5*%
X135250000Y-116500000D03*
%TO.P,J1,6*%
X132710000Y-116500000D03*
%TO.P,J1,7*%
X135250000Y-113960000D03*
%TO.P,J1,8*%
X132710000Y-113960000D03*
%TO.P,J1,9*%
%TO.N,GND*%
X135250000Y-111420000D03*
%TO.P,J1,10*%
%TO.N,N/C*%
X132710000Y-111420000D03*
%TO.P,J1,11*%
X135250000Y-108880000D03*
%TO.P,J1,12*%
X132710000Y-108880000D03*
%TO.P,J1,13*%
%TO.N,Net-(J1-Pad13)*%
X135250000Y-106340000D03*
%TO.P,J1,14*%
%TO.N,N/C*%
X132710000Y-106340000D03*
%TO.P,J1,15*%
%TO.N,Net-(J1-Pad15)*%
X135250000Y-103800000D03*
%TO.P,J1,16*%
%TO.N,N/C*%
X132710000Y-103800000D03*
%TO.P,J1,17*%
X135250000Y-101260000D03*
%TO.P,J1,18*%
X132710000Y-101260000D03*
%TO.P,J1,19*%
X135250000Y-98720000D03*
%TO.P,J1,20*%
X132710000Y-98720000D03*
%TO.P,J1,21*%
X135250000Y-96180000D03*
%TO.P,J1,22*%
X132710000Y-96180000D03*
%TO.P,J1,23*%
X135250000Y-93640000D03*
%TO.P,J1,24*%
X132710000Y-93640000D03*
%TO.P,J1,25*%
X135250000Y-91100000D03*
%TO.P,J1,26*%
X132710000Y-91100000D03*
%TO.P,J1,27*%
X135250000Y-88560000D03*
%TO.P,J1,28*%
X132710000Y-88560000D03*
%TO.P,J1,29*%
%TO.N,Net-(J1-Pad29)*%
X135250000Y-86020000D03*
%TO.P,J1,30*%
%TO.N,N/C*%
X132710000Y-86020000D03*
%TO.P,J1,31*%
%TO.N,Net-(J1-Pad31)*%
X135250000Y-83480000D03*
%TO.P,J1,32*%
%TO.N,N/C*%
X132710000Y-83480000D03*
%TO.P,J1,33*%
X135250000Y-80940000D03*
%TO.P,J1,34*%
X132710000Y-80940000D03*
%TO.P,J1,35*%
X135250000Y-78400000D03*
%TO.P,J1,36*%
X132710000Y-78400000D03*
%TO.P,J1,37*%
%TO.N,Net-(J1-Pad37)*%
X135250000Y-75860000D03*
%TO.P,J1,38*%
%TO.N,N/C*%
X132710000Y-75860000D03*
%TO.P,J1,39*%
X135250000Y-73320000D03*
%TO.P,J1,40*%
X132710000Y-73320000D03*
%TD*%
D11*
%TO.P,J2,1*%
%TO.N,N/C*%
X164750000Y-92000000D03*
D17*
%TO.P,J2,2*%
%TO.N,Net-(J2-Pad2)*%
X164750000Y-94770000D03*
%TO.P,J2,3*%
%TO.N,N/C*%
X164750000Y-97540000D03*
%TO.P,J2,4*%
%TO.N,Net-(D3-Pad1)*%
X164750000Y-100310000D03*
%TO.P,J2,5*%
%TO.N,Net-(D5-Pad1)*%
X164750000Y-103080000D03*
%TO.P,J2,6*%
%TO.N,Net-(D1-Pad1)*%
X167590000Y-93385000D03*
%TO.P,J2,7*%
%TO.N,Net-(D2-Pad1)*%
X167590000Y-96155000D03*
%TO.P,J2,8*%
%TO.N,Net-(J2-Pad2)*%
X167590000Y-98925000D03*
%TO.P,J2,9*%
%TO.N,Net-(D4-Pad1)*%
X167590000Y-101695000D03*
D18*
%TO.P,J2,0*%
%TO.N,N/C*%
X166170000Y-110040000D03*
X166170000Y-85040000D03*
%TD*%
D17*
%TO.P,R1,1*%
%TO.N,Net-(D1-Pad2)*%
X151700000Y-74750000D03*
D12*
%TO.P,R1,2*%
%TO.N,Net-(R1-Pad2)*%
X139000000Y-74750000D03*
%TD*%
D17*
%TO.P,R2,1*%
%TO.N,Net-(D2-Pad2)*%
X151700000Y-80500000D03*
D12*
%TO.P,R2,2*%
%TO.N,Net-(R2-Pad2)*%
X139000000Y-80500000D03*
%TD*%
%TO.P,R3,2*%
%TO.N,Net-(R3-Pad2)*%
X139000000Y-86250000D03*
D17*
%TO.P,R3,1*%
%TO.N,Net-(D3-Pad2)*%
X151700000Y-86250000D03*
%TD*%
%TO.P,R4,1*%
%TO.N,Net-(D4-Pad2)*%
X151700000Y-92250000D03*
D12*
%TO.P,R4,2*%
%TO.N,Net-(R4-Pad2)*%
X139000000Y-92250000D03*
%TD*%
%TO.P,R5,2*%
%TO.N,Net-(R5-Pad2)*%
X139000000Y-98000000D03*
D17*
%TO.P,R5,1*%
%TO.N,Net-(D5-Pad2)*%
X151700000Y-98000000D03*
%TD*%
%TO.P,R6,1*%
%TO.N,Net-(J2-Pad2)*%
X151950000Y-68250000D03*
D12*
%TO.P,R6,2*%
%TO.N,VCC*%
X139250000Y-68250000D03*
%TD*%
D19*
%TO.N,Net-(D1-Pad1)*%
X167590000Y-89983882D02*
X167590000Y-93385000D01*
X158540000Y-80933882D02*
X167590000Y-89983882D01*
X158540000Y-79250000D02*
X158540000Y-80933882D01*
%TO.N,Net-(D1-Pad2)*%
X151700000Y-74950000D02*
X151700000Y-74750000D01*
X156000000Y-79250000D02*
X151700000Y-74950000D01*
%TO.N,Net-(D2-Pad2)*%
X155750000Y-84550000D02*
X151700000Y-80500000D01*
X155750000Y-88500000D02*
X155750000Y-84550000D01*
%TO.N,Net-(D2-Pad1)*%
X166408999Y-94973999D02*
X167590000Y-96155000D01*
X166408999Y-91373197D02*
X166408999Y-94973999D01*
X163535802Y-88500000D02*
X166408999Y-91373197D01*
X158290000Y-88500000D02*
X163535802Y-88500000D01*
%TO.N,Net-(D3-Pad1)*%
X162190000Y-97750000D02*
X164750000Y-100310000D01*
X158500000Y-97750000D02*
X162190000Y-97750000D01*
%TO.N,Net-(D3-Pad2)*%
X151700000Y-90502118D02*
X151700000Y-86250000D01*
X155960000Y-94762118D02*
X151700000Y-90502118D01*
X155960000Y-97750000D02*
X155960000Y-94762118D01*
%TO.N,Net-(D4-Pad2)*%
X151700000Y-96252118D02*
X151700000Y-92250000D01*
X155960000Y-100512118D02*
X151700000Y-96252118D01*
X155960000Y-107000000D02*
X155960000Y-100512118D01*
%TO.N,Net-(D4-Pad1)*%
X162651000Y-101695000D02*
X167590000Y-101695000D01*
X158500000Y-105846000D02*
X162651000Y-101695000D01*
X158500000Y-107000000D02*
X158500000Y-105846000D01*
%TO.N,Net-(D5-Pad1)*%
X164750000Y-104211370D02*
X164750000Y-103080000D01*
X158500000Y-110461370D02*
X164750000Y-104211370D01*
X158500000Y-116250000D02*
X158500000Y-110461370D01*
%TO.N,Net-(D5-Pad2)*%
X151700000Y-111990000D02*
X151700000Y-98000000D01*
X155960000Y-116250000D02*
X151700000Y-111990000D01*
%TO.N,VCC*%
X137818999Y-69681001D02*
X139250000Y-68250000D01*
X137818999Y-99568999D02*
X137818999Y-69681001D01*
X141250000Y-103000000D02*
X137818999Y-99568999D01*
X142431001Y-104181001D02*
X141250000Y-103000000D01*
X142431001Y-116266881D02*
X142431001Y-104181001D01*
X141638883Y-117058999D02*
X142431001Y-116266881D01*
X139771001Y-117058999D02*
X141638883Y-117058999D01*
X135250000Y-121580000D02*
X139771001Y-117058999D01*
%TO.N,Net-(J1-Pad13)*%
X136481001Y-107571001D02*
X135250000Y-106340000D01*
X136481001Y-110931001D02*
X136481001Y-107571001D01*
X141250000Y-115700000D02*
X136481001Y-110931001D01*
%TO.N,Net-(J1-Pad15)*%
X136989011Y-105539011D02*
X135250000Y-103800000D01*
X136989011Y-108899011D02*
X136989011Y-105539011D01*
X141250000Y-113160000D02*
X136989011Y-108899011D01*
%TO.N,Net-(J1-Pad29)*%
X136481001Y-87251001D02*
X135250000Y-86020000D01*
X137497021Y-99965455D02*
X136481001Y-98949435D01*
X136481001Y-98949435D02*
X136481001Y-87251001D01*
X137497021Y-106867021D02*
X137497021Y-99965455D01*
X141250000Y-110620000D02*
X137497021Y-106867021D01*
%TO.N,Net-(J2-Pad2)*%
X165931001Y-97266001D02*
X167590000Y-98925000D01*
X165931001Y-95951001D02*
X165931001Y-97266001D01*
X164750000Y-94770000D02*
X165931001Y-95951001D01*
%TO.N,Net-(R1-Pad2)*%
X150051001Y-85801001D02*
X139000000Y-74750000D01*
X150051001Y-106898999D02*
X150051001Y-85801001D01*
X148870000Y-108080000D02*
X150051001Y-106898999D01*
%TO.N,Net-(R2-Pad2)*%
X147688999Y-89188999D02*
X139000000Y-80500000D01*
X147688999Y-109438999D02*
X147688999Y-89188999D01*
X148870000Y-110620000D02*
X147688999Y-109438999D01*
%TO.N,Net-(R3-Pad2)*%
X147180989Y-94430989D02*
X139000000Y-86250000D01*
X147180989Y-111470989D02*
X147180989Y-94430989D01*
X148870000Y-113160000D02*
X147180989Y-111470989D01*
%TO.N,Net-(R4-Pad2)*%
X146672979Y-99922979D02*
X139000000Y-92250000D01*
X146672979Y-113502979D02*
X146672979Y-99922979D01*
X148870000Y-115700000D02*
X146672979Y-113502979D01*
%TO.N,Net-(R5-Pad2)*%
X146164969Y-105164969D02*
X139000000Y-98000000D01*
X146164969Y-115534969D02*
X146164969Y-105164969D01*
X148870000Y-118240000D02*
X146164969Y-115534969D01*
%TD*%
%TO.N,GND*%
X155330936Y-66312835D02*
X154926705Y-66582934D01*
X154582934Y-66926705D01*
X154312835Y-67330936D01*
X154126788Y-67780094D01*
X154031942Y-68256917D01*
X154031942Y-68743083D01*
X154126788Y-69219906D01*
X154312835Y-69669064D01*
X154582934Y-70073295D01*
X154926705Y-70417066D01*
X155330936Y-70687165D01*
X155780094Y-70873212D01*
X156256917Y-70968058D01*
X156743083Y-70968058D01*
X157219906Y-70873212D01*
X157669064Y-70687165D01*
X158073295Y-70417066D01*
X158417066Y-70073295D01*
X158687165Y-69669064D01*
X158873212Y-69219906D01*
X158968058Y-68743083D01*
X158968058Y-68256917D01*
X158873212Y-67780094D01*
X158687165Y-67330936D01*
X158417066Y-66926705D01*
X158073295Y-66582934D01*
X157669064Y-66312835D01*
X157239732Y-66135000D01*
X171944489Y-66135000D01*
X172361189Y-66175858D01*
X172708625Y-66280755D01*
X173029061Y-66451134D01*
X173310309Y-66680514D01*
X173541643Y-66960148D01*
X173714256Y-67279391D01*
X173821577Y-67626085D01*
X173865000Y-68039229D01*
X173865001Y-126944479D01*
X173824142Y-127361189D01*
X173719246Y-127708622D01*
X173548865Y-128029064D01*
X173319486Y-128310309D01*
X173039852Y-128541643D01*
X172720609Y-128714256D01*
X172373912Y-128821577D01*
X171960770Y-128865000D01*
X157239732Y-128865000D01*
X157669064Y-128687165D01*
X158073295Y-128417066D01*
X158417066Y-128073295D01*
X158687165Y-127669064D01*
X158873212Y-127219906D01*
X158968058Y-126743083D01*
X158968058Y-126256917D01*
X158873212Y-125780094D01*
X158687165Y-125330936D01*
X158417066Y-124926705D01*
X158073295Y-124582934D01*
X157669064Y-124312835D01*
X157219906Y-124126788D01*
X156743083Y-124031942D01*
X156256917Y-124031942D01*
X155780094Y-124126788D01*
X155330936Y-124312835D01*
X154926705Y-124582934D01*
X154582934Y-124926705D01*
X154312835Y-125330936D01*
X154126788Y-125780094D01*
X154031942Y-126256917D01*
X154031942Y-126743083D01*
X154126788Y-127219906D01*
X154312835Y-127669064D01*
X154582934Y-128073295D01*
X154926705Y-128417066D01*
X155330936Y-128687165D01*
X155760268Y-128865000D01*
X134239732Y-128865000D01*
X134669064Y-128687165D01*
X135073295Y-128417066D01*
X135417066Y-128073295D01*
X135687165Y-127669064D01*
X135873212Y-127219906D01*
X135968058Y-126743083D01*
X135968058Y-126256917D01*
X135958535Y-126209039D01*
X139858096Y-126209039D01*
X139898754Y-126343087D01*
X140018963Y-126597420D01*
X140186481Y-126823414D01*
X140394869Y-127012385D01*
X140636119Y-127157070D01*
X140900960Y-127251909D01*
X141123000Y-127130624D01*
X141123000Y-125987000D01*
X141377000Y-125987000D01*
X141377000Y-127130624D01*
X141599040Y-127251909D01*
X141863881Y-127157070D01*
X142105131Y-127012385D01*
X142313519Y-126823414D01*
X142481037Y-126597420D01*
X142601246Y-126343087D01*
X142641904Y-126209039D01*
X142519915Y-125987000D01*
X141377000Y-125987000D01*
X141123000Y-125987000D01*
X139980085Y-125987000D01*
X139858096Y-126209039D01*
X135958535Y-126209039D01*
X135873212Y-125780094D01*
X135687165Y-125330936D01*
X135417066Y-124926705D01*
X135073295Y-124582934D01*
X134669064Y-124312835D01*
X134219906Y-124126788D01*
X133743083Y-124031942D01*
X133256917Y-124031942D01*
X132780094Y-124126788D01*
X132330936Y-124312835D01*
X131926705Y-124582934D01*
X131582934Y-124926705D01*
X131312835Y-125330936D01*
X131135000Y-125760268D01*
X131135000Y-73173740D01*
X131225000Y-73173740D01*
X131225000Y-73466260D01*
X131282068Y-73753158D01*
X131394010Y-74023411D01*
X131556525Y-74266632D01*
X131763368Y-74473475D01*
X131937760Y-74590000D01*
X131763368Y-74706525D01*
X131556525Y-74913368D01*
X131394010Y-75156589D01*
X131282068Y-75426842D01*
X131225000Y-75713740D01*
X131225000Y-76006260D01*
X131282068Y-76293158D01*
X131394010Y-76563411D01*
X131556525Y-76806632D01*
X131763368Y-77013475D01*
X131937760Y-77130000D01*
X131763368Y-77246525D01*
X131556525Y-77453368D01*
X131394010Y-77696589D01*
X131282068Y-77966842D01*
X131225000Y-78253740D01*
X131225000Y-78546260D01*
X131282068Y-78833158D01*
X131394010Y-79103411D01*
X131556525Y-79346632D01*
X131763368Y-79553475D01*
X131937760Y-79670000D01*
X131763368Y-79786525D01*
X131556525Y-79993368D01*
X131394010Y-80236589D01*
X131282068Y-80506842D01*
X131225000Y-80793740D01*
X131225000Y-81086260D01*
X131282068Y-81373158D01*
X131394010Y-81643411D01*
X131556525Y-81886632D01*
X131763368Y-82093475D01*
X131937760Y-82210000D01*
X131763368Y-82326525D01*
X131556525Y-82533368D01*
X131394010Y-82776589D01*
X131282068Y-83046842D01*
X131225000Y-83333740D01*
X131225000Y-83626260D01*
X131282068Y-83913158D01*
X131394010Y-84183411D01*
X131556525Y-84426632D01*
X131763368Y-84633475D01*
X131937760Y-84750000D01*
X131763368Y-84866525D01*
X131556525Y-85073368D01*
X131394010Y-85316589D01*
X131282068Y-85586842D01*
X131225000Y-85873740D01*
X131225000Y-86166260D01*
X131282068Y-86453158D01*
X131394010Y-86723411D01*
X131556525Y-86966632D01*
X131763368Y-87173475D01*
X131937760Y-87290000D01*
X131763368Y-87406525D01*
X131556525Y-87613368D01*
X131394010Y-87856589D01*
X131282068Y-88126842D01*
X131225000Y-88413740D01*
X131225000Y-88706260D01*
X131282068Y-88993158D01*
X131394010Y-89263411D01*
X131556525Y-89506632D01*
X131763368Y-89713475D01*
X131937760Y-89830000D01*
X131763368Y-89946525D01*
X131556525Y-90153368D01*
X131394010Y-90396589D01*
X131282068Y-90666842D01*
X131225000Y-90953740D01*
X131225000Y-91246260D01*
X131282068Y-91533158D01*
X131394010Y-91803411D01*
X131556525Y-92046632D01*
X131763368Y-92253475D01*
X131937760Y-92370000D01*
X131763368Y-92486525D01*
X131556525Y-92693368D01*
X131394010Y-92936589D01*
X131282068Y-93206842D01*
X131225000Y-93493740D01*
X131225000Y-93786260D01*
X131282068Y-94073158D01*
X131394010Y-94343411D01*
X131556525Y-94586632D01*
X131763368Y-94793475D01*
X131937760Y-94910000D01*
X131763368Y-95026525D01*
X131556525Y-95233368D01*
X131394010Y-95476589D01*
X131282068Y-95746842D01*
X131225000Y-96033740D01*
X131225000Y-96326260D01*
X131282068Y-96613158D01*
X131394010Y-96883411D01*
X131556525Y-97126632D01*
X131763368Y-97333475D01*
X131937760Y-97450000D01*
X131763368Y-97566525D01*
X131556525Y-97773368D01*
X131394010Y-98016589D01*
X131282068Y-98286842D01*
X131225000Y-98573740D01*
X131225000Y-98866260D01*
X131282068Y-99153158D01*
X131394010Y-99423411D01*
X131556525Y-99666632D01*
X131763368Y-99873475D01*
X131937760Y-99990000D01*
X131763368Y-100106525D01*
X131556525Y-100313368D01*
X131394010Y-100556589D01*
X131282068Y-100826842D01*
X131225000Y-101113740D01*
X131225000Y-101406260D01*
X131282068Y-101693158D01*
X131394010Y-101963411D01*
X131556525Y-102206632D01*
X131763368Y-102413475D01*
X131937760Y-102530000D01*
X131763368Y-102646525D01*
X131556525Y-102853368D01*
X131394010Y-103096589D01*
X131282068Y-103366842D01*
X131225000Y-103653740D01*
X131225000Y-103946260D01*
X131282068Y-104233158D01*
X131394010Y-104503411D01*
X131556525Y-104746632D01*
X131763368Y-104953475D01*
X131937760Y-105070000D01*
X131763368Y-105186525D01*
X131556525Y-105393368D01*
X131394010Y-105636589D01*
X131282068Y-105906842D01*
X131225000Y-106193740D01*
X131225000Y-106486260D01*
X131282068Y-106773158D01*
X131394010Y-107043411D01*
X131556525Y-107286632D01*
X131763368Y-107493475D01*
X131937760Y-107610000D01*
X131763368Y-107726525D01*
X131556525Y-107933368D01*
X131394010Y-108176589D01*
X131282068Y-108446842D01*
X131225000Y-108733740D01*
X131225000Y-109026260D01*
X131282068Y-109313158D01*
X131394010Y-109583411D01*
X131556525Y-109826632D01*
X131763368Y-110033475D01*
X131937760Y-110150000D01*
X131763368Y-110266525D01*
X131556525Y-110473368D01*
X131394010Y-110716589D01*
X131282068Y-110986842D01*
X131225000Y-111273740D01*
X131225000Y-111566260D01*
X131282068Y-111853158D01*
X131394010Y-112123411D01*
X131556525Y-112366632D01*
X131763368Y-112573475D01*
X131937760Y-112690000D01*
X131763368Y-112806525D01*
X131556525Y-113013368D01*
X131394010Y-113256589D01*
X131282068Y-113526842D01*
X131225000Y-113813740D01*
X131225000Y-114106260D01*
X131282068Y-114393158D01*
X131394010Y-114663411D01*
X131556525Y-114906632D01*
X131763368Y-115113475D01*
X131937760Y-115230000D01*
X131763368Y-115346525D01*
X131556525Y-115553368D01*
X131394010Y-115796589D01*
X131282068Y-116066842D01*
X131225000Y-116353740D01*
X131225000Y-116646260D01*
X131282068Y-116933158D01*
X131394010Y-117203411D01*
X131556525Y-117446632D01*
X131763368Y-117653475D01*
X131937760Y-117770000D01*
X131763368Y-117886525D01*
X131556525Y-118093368D01*
X131394010Y-118336589D01*
X131282068Y-118606842D01*
X131225000Y-118893740D01*
X131225000Y-119186260D01*
X131282068Y-119473158D01*
X131394010Y-119743411D01*
X131556525Y-119986632D01*
X131763368Y-120193475D01*
X131937760Y-120310000D01*
X131763368Y-120426525D01*
X131556525Y-120633368D01*
X131394010Y-120876589D01*
X131282068Y-121146842D01*
X131225000Y-121433740D01*
X131225000Y-121726260D01*
X131282068Y-122013158D01*
X131394010Y-122283411D01*
X131556525Y-122526632D01*
X131763368Y-122733475D01*
X132006589Y-122895990D01*
X132276842Y-123007932D01*
X132563740Y-123065000D01*
X132856260Y-123065000D01*
X133143158Y-123007932D01*
X133413411Y-122895990D01*
X133656632Y-122733475D01*
X133788487Y-122601620D01*
X133810498Y-122674180D01*
X133869463Y-122784494D01*
X133948815Y-122881185D01*
X134045506Y-122960537D01*
X134155820Y-123019502D01*
X134275518Y-123055812D01*
X134400000Y-123068072D01*
X136100000Y-123068072D01*
X136224482Y-123055812D01*
X136344180Y-123019502D01*
X136454494Y-122960537D01*
X136551185Y-122881185D01*
X136630537Y-122784494D01*
X136689502Y-122674180D01*
X136725812Y-122554482D01*
X136738072Y-122430000D01*
X136738072Y-121169558D01*
X139816498Y-118091133D01*
X139815000Y-118098665D01*
X139815000Y-118381335D01*
X139870147Y-118658574D01*
X139978320Y-118919727D01*
X140135363Y-119154759D01*
X140335241Y-119354637D01*
X140567759Y-119510000D01*
X140335241Y-119665363D01*
X140135363Y-119865241D01*
X139978320Y-120100273D01*
X139870147Y-120361426D01*
X139815000Y-120638665D01*
X139815000Y-120921335D01*
X139870147Y-121198574D01*
X139978320Y-121459727D01*
X140135363Y-121694759D01*
X140335241Y-121894637D01*
X140567759Y-122050000D01*
X140335241Y-122205363D01*
X140135363Y-122405241D01*
X139978320Y-122640273D01*
X139870147Y-122901426D01*
X139815000Y-123178665D01*
X139815000Y-123461335D01*
X139870147Y-123738574D01*
X139978320Y-123999727D01*
X140135363Y-124234759D01*
X140335241Y-124434637D01*
X140570273Y-124591680D01*
X140580865Y-124596067D01*
X140394869Y-124707615D01*
X140186481Y-124896586D01*
X140018963Y-125122580D01*
X139898754Y-125376913D01*
X139858096Y-125510961D01*
X139980085Y-125733000D01*
X141123000Y-125733000D01*
X141123000Y-125713000D01*
X141377000Y-125713000D01*
X141377000Y-125733000D01*
X142519915Y-125733000D01*
X142641904Y-125510961D01*
X142601246Y-125376913D01*
X142481037Y-125122580D01*
X142313519Y-124896586D01*
X142105131Y-124707615D01*
X141919135Y-124596067D01*
X141929727Y-124591680D01*
X142164759Y-124434637D01*
X142364637Y-124234759D01*
X142521680Y-123999727D01*
X142629853Y-123738574D01*
X142685000Y-123461335D01*
X142685000Y-123178665D01*
X142629853Y-122901426D01*
X142521680Y-122640273D01*
X142364637Y-122405241D01*
X142164759Y-122205363D01*
X141932241Y-122050000D01*
X142164759Y-121894637D01*
X142364637Y-121694759D01*
X142521680Y-121459727D01*
X142629853Y-121198574D01*
X142685000Y-120921335D01*
X142685000Y-120638665D01*
X142629853Y-120361426D01*
X142521680Y-120100273D01*
X142364637Y-119865241D01*
X142164759Y-119665363D01*
X141932241Y-119510000D01*
X142164759Y-119354637D01*
X142364637Y-119154759D01*
X142521680Y-118919727D01*
X142629853Y-118658574D01*
X142685000Y-118381335D01*
X142685000Y-118098665D01*
X142629853Y-117821426D01*
X142521680Y-117560273D01*
X142398937Y-117376575D01*
X142943354Y-116832159D01*
X142972423Y-116808303D01*
X143067646Y-116692273D01*
X143138403Y-116559896D01*
X143181975Y-116416259D01*
X143193001Y-116304307D01*
X143193001Y-116304305D01*
X143196687Y-116266882D01*
X143193001Y-116229459D01*
X143193001Y-104218424D01*
X143196687Y-104181001D01*
X143190151Y-104114637D01*
X143181975Y-104031623D01*
X143138403Y-103887986D01*
X143105466Y-103826365D01*
X143067646Y-103755608D01*
X143005371Y-103679727D01*
X142972423Y-103639579D01*
X142943347Y-103615717D01*
X142688072Y-103360442D01*
X142688072Y-102765703D01*
X145402970Y-105480601D01*
X145402969Y-115497546D01*
X145399283Y-115534969D01*
X145402969Y-115572392D01*
X145402969Y-115572394D01*
X145413995Y-115684346D01*
X145457567Y-115827983D01*
X145457568Y-115827984D01*
X145528324Y-115960361D01*
X145555123Y-115993015D01*
X145623547Y-116076391D01*
X145652623Y-116100253D01*
X147470843Y-117918473D01*
X147435000Y-118098665D01*
X147435000Y-118381335D01*
X147490147Y-118658574D01*
X147598320Y-118919727D01*
X147755363Y-119154759D01*
X147955241Y-119354637D01*
X148187759Y-119510000D01*
X147955241Y-119665363D01*
X147755363Y-119865241D01*
X147598320Y-120100273D01*
X147490147Y-120361426D01*
X147435000Y-120638665D01*
X147435000Y-120921335D01*
X147490147Y-121198574D01*
X147598320Y-121459727D01*
X147755363Y-121694759D01*
X147955241Y-121894637D01*
X148187759Y-122050000D01*
X147955241Y-122205363D01*
X147755363Y-122405241D01*
X147598320Y-122640273D01*
X147490147Y-122901426D01*
X147435000Y-123178665D01*
X147435000Y-123461335D01*
X147490147Y-123738574D01*
X147598320Y-123999727D01*
X147755363Y-124234759D01*
X147955241Y-124434637D01*
X148187759Y-124590000D01*
X147955241Y-124745363D01*
X147755363Y-124945241D01*
X147598320Y-125180273D01*
X147490147Y-125441426D01*
X147435000Y-125718665D01*
X147435000Y-126001335D01*
X147490147Y-126278574D01*
X147598320Y-126539727D01*
X147755363Y-126774759D01*
X147955241Y-126974637D01*
X148190273Y-127131680D01*
X148451426Y-127239853D01*
X148728665Y-127295000D01*
X149011335Y-127295000D01*
X149288574Y-127239853D01*
X149549727Y-127131680D01*
X149784759Y-126974637D01*
X149984637Y-126774759D01*
X150141680Y-126539727D01*
X150249853Y-126278574D01*
X150305000Y-126001335D01*
X150305000Y-125718665D01*
X150249853Y-125441426D01*
X150141680Y-125180273D01*
X149984637Y-124945241D01*
X149784759Y-124745363D01*
X149552241Y-124590000D01*
X149784759Y-124434637D01*
X149984637Y-124234759D01*
X150141680Y-123999727D01*
X150249853Y-123738574D01*
X150305000Y-123461335D01*
X150305000Y-123178665D01*
X150249853Y-122901426D01*
X150141680Y-122640273D01*
X149984637Y-122405241D01*
X149784759Y-122205363D01*
X149552241Y-122050000D01*
X149784759Y-121894637D01*
X149984637Y-121694759D01*
X150141680Y-121459727D01*
X150249853Y-121198574D01*
X150305000Y-120921335D01*
X150305000Y-120638665D01*
X150249853Y-120361426D01*
X150141680Y-120100273D01*
X150047953Y-119960000D01*
X163607857Y-119960000D01*
X163607857Y-123780000D01*
X169892143Y-123780000D01*
X169892143Y-119960000D01*
X163607857Y-119960000D01*
X150047953Y-119960000D01*
X149984637Y-119865241D01*
X149784759Y-119665363D01*
X149552241Y-119510000D01*
X149784759Y-119354637D01*
X149984637Y-119154759D01*
X150141680Y-118919727D01*
X150249853Y-118658574D01*
X150305000Y-118381335D01*
X150305000Y-118098665D01*
X150249853Y-117821426D01*
X150141680Y-117560273D01*
X149984637Y-117325241D01*
X149784759Y-117125363D01*
X149552241Y-116970000D01*
X149784759Y-116814637D01*
X149984637Y-116614759D01*
X150141680Y-116379727D01*
X150249853Y-116118574D01*
X150305000Y-115841335D01*
X150305000Y-115558665D01*
X150249853Y-115281426D01*
X150141680Y-115020273D01*
X149984637Y-114785241D01*
X149784759Y-114585363D01*
X149552241Y-114430000D01*
X149784759Y-114274637D01*
X149984637Y-114074759D01*
X150141680Y-113839727D01*
X150249853Y-113578574D01*
X150305000Y-113301335D01*
X150305000Y-113018665D01*
X150249853Y-112741426D01*
X150141680Y-112480273D01*
X149984637Y-112245241D01*
X149784759Y-112045363D01*
X149552241Y-111890000D01*
X149784759Y-111734637D01*
X149984637Y-111534759D01*
X150141680Y-111299727D01*
X150249853Y-111038574D01*
X150305000Y-110761335D01*
X150305000Y-110478665D01*
X150249853Y-110201426D01*
X150141680Y-109940273D01*
X149984637Y-109705241D01*
X149784759Y-109505363D01*
X149552241Y-109350000D01*
X149784759Y-109194637D01*
X149984637Y-108994759D01*
X150141680Y-108759727D01*
X150249853Y-108498574D01*
X150305000Y-108221335D01*
X150305000Y-107938665D01*
X150269157Y-107758473D01*
X150563348Y-107464282D01*
X150592423Y-107440421D01*
X150652858Y-107366780D01*
X150687646Y-107324392D01*
X150758402Y-107192015D01*
X150758403Y-107192014D01*
X150801975Y-107048377D01*
X150813001Y-106936425D01*
X150813001Y-106936422D01*
X150816687Y-106898999D01*
X150813001Y-106861576D01*
X150813001Y-99133186D01*
X150938001Y-99216708D01*
X150938000Y-111952577D01*
X150934314Y-111990000D01*
X150938000Y-112027423D01*
X150938000Y-112027425D01*
X150949026Y-112139377D01*
X150992598Y-112283014D01*
X150992599Y-112283015D01*
X151063355Y-112415392D01*
X151102983Y-112463678D01*
X151158578Y-112531422D01*
X151187654Y-112555284D01*
X154475799Y-115843430D01*
X154425000Y-116098816D01*
X154425000Y-116401184D01*
X154483989Y-116697743D01*
X154599701Y-116977095D01*
X154767688Y-117228505D01*
X154981495Y-117442312D01*
X155232905Y-117610299D01*
X155512257Y-117726011D01*
X155808816Y-117785000D01*
X156111184Y-117785000D01*
X156407743Y-117726011D01*
X156687095Y-117610299D01*
X156938505Y-117442312D01*
X157004944Y-117375873D01*
X157010498Y-117394180D01*
X157069463Y-117504494D01*
X157148815Y-117601185D01*
X157245506Y-117680537D01*
X157355820Y-117739502D01*
X157475518Y-117775812D01*
X157600000Y-117788072D01*
X159400000Y-117788072D01*
X159524482Y-117775812D01*
X159644180Y-117739502D01*
X159754494Y-117680537D01*
X159851185Y-117601185D01*
X159930537Y-117504494D01*
X159989502Y-117394180D01*
X160025812Y-117274482D01*
X160038072Y-117150000D01*
X160038072Y-115350000D01*
X160025812Y-115225518D01*
X159989502Y-115105820D01*
X159930537Y-114995506D01*
X159851185Y-114898815D01*
X159754494Y-114819463D01*
X159644180Y-114760498D01*
X159524482Y-114724188D01*
X159400000Y-114711928D01*
X159262000Y-114711928D01*
X159262000Y-110777000D01*
X160258525Y-109780475D01*
X163535000Y-109780475D01*
X163535000Y-110299525D01*
X163636261Y-110808601D01*
X163834893Y-111288141D01*
X164123262Y-111719715D01*
X164490285Y-112086738D01*
X164921859Y-112375107D01*
X165401399Y-112573739D01*
X165910475Y-112675000D01*
X166429525Y-112675000D01*
X166938601Y-112573739D01*
X167418141Y-112375107D01*
X167849715Y-112086738D01*
X168216738Y-111719715D01*
X168505107Y-111288141D01*
X168703739Y-110808601D01*
X168805000Y-110299525D01*
X168805000Y-109780475D01*
X168703739Y-109271399D01*
X168505107Y-108791859D01*
X168216738Y-108360285D01*
X167849715Y-107993262D01*
X167418141Y-107704893D01*
X166938601Y-107506261D01*
X166429525Y-107405000D01*
X165910475Y-107405000D01*
X165401399Y-107506261D01*
X164921859Y-107704893D01*
X164490285Y-107993262D01*
X164123262Y-108360285D01*
X163834893Y-108791859D01*
X163636261Y-109271399D01*
X163535000Y-109780475D01*
X160258525Y-109780475D01*
X165262353Y-104776648D01*
X165291422Y-104752792D01*
X165318772Y-104719466D01*
X165386645Y-104636763D01*
X165457401Y-104504386D01*
X165457402Y-104504385D01*
X165500974Y-104360748D01*
X165506949Y-104300082D01*
X165664759Y-104194637D01*
X165864637Y-103994759D01*
X166021680Y-103759727D01*
X166129853Y-103498574D01*
X166185000Y-103221335D01*
X166185000Y-102938665D01*
X166129853Y-102661426D01*
X166045177Y-102457000D01*
X166373293Y-102457000D01*
X166475363Y-102609759D01*
X166675241Y-102809637D01*
X166910273Y-102966680D01*
X167171426Y-103074853D01*
X167448665Y-103130000D01*
X167731335Y-103130000D01*
X168008574Y-103074853D01*
X168269727Y-102966680D01*
X168504759Y-102809637D01*
X168704637Y-102609759D01*
X168861680Y-102374727D01*
X168969853Y-102113574D01*
X169025000Y-101836335D01*
X169025000Y-101553665D01*
X168969853Y-101276426D01*
X168861680Y-101015273D01*
X168704637Y-100780241D01*
X168504759Y-100580363D01*
X168269727Y-100423320D01*
X168008574Y-100315147D01*
X167982699Y-100310000D01*
X168008574Y-100304853D01*
X168269727Y-100196680D01*
X168504759Y-100039637D01*
X168704637Y-99839759D01*
X168861680Y-99604727D01*
X168969853Y-99343574D01*
X169025000Y-99066335D01*
X169025000Y-98783665D01*
X168969853Y-98506426D01*
X168861680Y-98245273D01*
X168704637Y-98010241D01*
X168504759Y-97810363D01*
X168269727Y-97653320D01*
X168008574Y-97545147D01*
X167982699Y-97540000D01*
X168008574Y-97534853D01*
X168269727Y-97426680D01*
X168504759Y-97269637D01*
X168704637Y-97069759D01*
X168861680Y-96834727D01*
X168969853Y-96573574D01*
X169025000Y-96296335D01*
X169025000Y-96013665D01*
X168969853Y-95736426D01*
X168861680Y-95475273D01*
X168704637Y-95240241D01*
X168504759Y-95040363D01*
X168269727Y-94883320D01*
X168008574Y-94775147D01*
X167982699Y-94770000D01*
X168008574Y-94764853D01*
X168269727Y-94656680D01*
X168504759Y-94499637D01*
X168704637Y-94299759D01*
X168861680Y-94064727D01*
X168969853Y-93803574D01*
X169025000Y-93526335D01*
X169025000Y-93243665D01*
X168969853Y-92966426D01*
X168861680Y-92705273D01*
X168704637Y-92470241D01*
X168504759Y-92270363D01*
X168352000Y-92168293D01*
X168352000Y-90021305D01*
X168355686Y-89983882D01*
X168347070Y-89896400D01*
X168340974Y-89834504D01*
X168297402Y-89690867D01*
X168226646Y-89558491D01*
X168226645Y-89558489D01*
X168155279Y-89471530D01*
X168131422Y-89442460D01*
X168102353Y-89418604D01*
X166358749Y-87675000D01*
X166429525Y-87675000D01*
X166938601Y-87573739D01*
X167418141Y-87375107D01*
X167849715Y-87086738D01*
X168216738Y-86719715D01*
X168505107Y-86288141D01*
X168703739Y-85808601D01*
X168805000Y-85299525D01*
X168805000Y-84780475D01*
X168703739Y-84271399D01*
X168505107Y-83791859D01*
X168216738Y-83360285D01*
X167849715Y-82993262D01*
X167418141Y-82704893D01*
X166938601Y-82506261D01*
X166429525Y-82405000D01*
X165910475Y-82405000D01*
X165401399Y-82506261D01*
X164921859Y-82704893D01*
X164490285Y-82993262D01*
X164123262Y-83360285D01*
X163834893Y-83791859D01*
X163636261Y-84271399D01*
X163535000Y-84780475D01*
X163535000Y-84851252D01*
X159468967Y-80785219D01*
X159564482Y-80775812D01*
X159684180Y-80739502D01*
X159794494Y-80680537D01*
X159891185Y-80601185D01*
X159970537Y-80504494D01*
X160029502Y-80394180D01*
X160065812Y-80274482D01*
X160078072Y-80150000D01*
X160078072Y-78350000D01*
X160065812Y-78225518D01*
X160029502Y-78105820D01*
X159970537Y-77995506D01*
X159891185Y-77898815D01*
X159794494Y-77819463D01*
X159684180Y-77760498D01*
X159564482Y-77724188D01*
X159440000Y-77711928D01*
X157640000Y-77711928D01*
X157515518Y-77724188D01*
X157395820Y-77760498D01*
X157285506Y-77819463D01*
X157188815Y-77898815D01*
X157109463Y-77995506D01*
X157050498Y-78105820D01*
X157044944Y-78124127D01*
X156978505Y-78057688D01*
X156727095Y-77889701D01*
X156447743Y-77773989D01*
X156151184Y-77715000D01*
X155848816Y-77715000D01*
X155593430Y-77765799D01*
X153055353Y-75227723D01*
X153079853Y-75168574D01*
X153135000Y-74891335D01*
X153135000Y-74608665D01*
X153079853Y-74331426D01*
X152971680Y-74070273D01*
X152814637Y-73835241D01*
X152614759Y-73635363D01*
X152379727Y-73478320D01*
X152118574Y-73370147D01*
X151841335Y-73315000D01*
X151558665Y-73315000D01*
X151281426Y-73370147D01*
X151020273Y-73478320D01*
X150785241Y-73635363D01*
X150585363Y-73835241D01*
X150428320Y-74070273D01*
X150320147Y-74331426D01*
X150265000Y-74608665D01*
X150265000Y-74891335D01*
X150320147Y-75168574D01*
X150428320Y-75429727D01*
X150585363Y-75664759D01*
X150785241Y-75864637D01*
X151020273Y-76021680D01*
X151281426Y-76129853D01*
X151558665Y-76185000D01*
X151841335Y-76185000D01*
X151854709Y-76182340D01*
X154515799Y-78843430D01*
X154465000Y-79098816D01*
X154465000Y-79401184D01*
X154523989Y-79697743D01*
X154639701Y-79977095D01*
X154807688Y-80228505D01*
X155021495Y-80442312D01*
X155272905Y-80610299D01*
X155552257Y-80726011D01*
X155848816Y-80785000D01*
X156151184Y-80785000D01*
X156447743Y-80726011D01*
X156727095Y-80610299D01*
X156978505Y-80442312D01*
X157044944Y-80375873D01*
X157050498Y-80394180D01*
X157109463Y-80504494D01*
X157188815Y-80601185D01*
X157285506Y-80680537D01*
X157395820Y-80739502D01*
X157515518Y-80775812D01*
X157640000Y-80788072D01*
X157778001Y-80788072D01*
X157778001Y-80896449D01*
X157774314Y-80933882D01*
X157789027Y-81083260D01*
X157832599Y-81226897D01*
X157903355Y-81359274D01*
X157948891Y-81414759D01*
X157998579Y-81475304D01*
X158027649Y-81499161D01*
X166828000Y-90299513D01*
X166828000Y-90714567D01*
X164101086Y-87987654D01*
X164077224Y-87958578D01*
X163961194Y-87863355D01*
X163828817Y-87792598D01*
X163685180Y-87749026D01*
X163573228Y-87738000D01*
X163573225Y-87738000D01*
X163535802Y-87734314D01*
X163498379Y-87738000D01*
X159828072Y-87738000D01*
X159828072Y-87600000D01*
X159815812Y-87475518D01*
X159779502Y-87355820D01*
X159720537Y-87245506D01*
X159641185Y-87148815D01*
X159544494Y-87069463D01*
X159434180Y-87010498D01*
X159314482Y-86974188D01*
X159190000Y-86961928D01*
X157390000Y-86961928D01*
X157265518Y-86974188D01*
X157145820Y-87010498D01*
X157035506Y-87069463D01*
X156938815Y-87148815D01*
X156859463Y-87245506D01*
X156800498Y-87355820D01*
X156794944Y-87374127D01*
X156728505Y-87307688D01*
X156512000Y-87163024D01*
X156512000Y-84587423D01*
X156515686Y-84550000D01*
X156512000Y-84512574D01*
X156500974Y-84400622D01*
X156457402Y-84256985D01*
X156418076Y-84183411D01*
X156386645Y-84124607D01*
X156315279Y-84037648D01*
X156291422Y-84008578D01*
X156262352Y-83984721D01*
X153099157Y-80821527D01*
X153135000Y-80641335D01*
X153135000Y-80358665D01*
X153079853Y-80081426D01*
X152971680Y-79820273D01*
X152814637Y-79585241D01*
X152614759Y-79385363D01*
X152379727Y-79228320D01*
X152118574Y-79120147D01*
X151841335Y-79065000D01*
X151558665Y-79065000D01*
X151281426Y-79120147D01*
X151020273Y-79228320D01*
X150785241Y-79385363D01*
X150585363Y-79585241D01*
X150428320Y-79820273D01*
X150320147Y-80081426D01*
X150265000Y-80358665D01*
X150265000Y-80641335D01*
X150320147Y-80918574D01*
X150428320Y-81179727D01*
X150585363Y-81414759D01*
X150785241Y-81614637D01*
X151020273Y-81771680D01*
X151281426Y-81879853D01*
X151558665Y-81935000D01*
X151841335Y-81935000D01*
X152021527Y-81899157D01*
X154988001Y-84865632D01*
X154988000Y-87163024D01*
X154771495Y-87307688D01*
X154557688Y-87521495D01*
X154389701Y-87772905D01*
X154273989Y-88052257D01*
X154215000Y-88348816D01*
X154215000Y-88651184D01*
X154273989Y-88947743D01*
X154389701Y-89227095D01*
X154557688Y-89478505D01*
X154771495Y-89692312D01*
X155022905Y-89860299D01*
X155302257Y-89976011D01*
X155598816Y-90035000D01*
X155901184Y-90035000D01*
X156197743Y-89976011D01*
X156477095Y-89860299D01*
X156728505Y-89692312D01*
X156794944Y-89625873D01*
X156800498Y-89644180D01*
X156859463Y-89754494D01*
X156938815Y-89851185D01*
X157035506Y-89930537D01*
X157145820Y-89989502D01*
X157265518Y-90025812D01*
X157390000Y-90038072D01*
X159190000Y-90038072D01*
X159314482Y-90025812D01*
X159434180Y-89989502D01*
X159544494Y-89930537D01*
X159641185Y-89851185D01*
X159720537Y-89754494D01*
X159779502Y-89644180D01*
X159815812Y-89524482D01*
X159828072Y-89400000D01*
X159828072Y-89262000D01*
X163220172Y-89262000D01*
X164520099Y-90561928D01*
X163950000Y-90561928D01*
X163825518Y-90574188D01*
X163705820Y-90610498D01*
X163595506Y-90669463D01*
X163498815Y-90748815D01*
X163419463Y-90845506D01*
X163360498Y-90955820D01*
X163324188Y-91075518D01*
X163311928Y-91200000D01*
X163311928Y-92800000D01*
X163324188Y-92924482D01*
X163360498Y-93044180D01*
X163419463Y-93154494D01*
X163498815Y-93251185D01*
X163595506Y-93330537D01*
X163705820Y-93389502D01*
X163825518Y-93425812D01*
X163950000Y-93438072D01*
X164215725Y-93438072D01*
X164070273Y-93498320D01*
X163835241Y-93655363D01*
X163635363Y-93855241D01*
X163478320Y-94090273D01*
X163370147Y-94351426D01*
X163315000Y-94628665D01*
X163315000Y-94911335D01*
X163370147Y-95188574D01*
X163478320Y-95449727D01*
X163635363Y-95684759D01*
X163835241Y-95884637D01*
X164070273Y-96041680D01*
X164331426Y-96149853D01*
X164357301Y-96155000D01*
X164331426Y-96160147D01*
X164070273Y-96268320D01*
X163835241Y-96425363D01*
X163635363Y-96625241D01*
X163478320Y-96860273D01*
X163370147Y-97121426D01*
X163315000Y-97398665D01*
X163315000Y-97681335D01*
X163343812Y-97826182D01*
X162755284Y-97237654D01*
X162731422Y-97208578D01*
X162615392Y-97113355D01*
X162483015Y-97042598D01*
X162339378Y-96999026D01*
X162227426Y-96988000D01*
X162227423Y-96988000D01*
X162190000Y-96984314D01*
X162152577Y-96988000D01*
X160038072Y-96988000D01*
X160038072Y-96850000D01*
X160025812Y-96725518D01*
X159989502Y-96605820D01*
X159930537Y-96495506D01*
X159851185Y-96398815D01*
X159754494Y-96319463D01*
X159644180Y-96260498D01*
X159524482Y-96224188D01*
X159400000Y-96211928D01*
X157600000Y-96211928D01*
X157475518Y-96224188D01*
X157355820Y-96260498D01*
X157245506Y-96319463D01*
X157148815Y-96398815D01*
X157069463Y-96495506D01*
X157010498Y-96605820D01*
X157004944Y-96624127D01*
X156938505Y-96557688D01*
X156722000Y-96413024D01*
X156722000Y-94799541D01*
X156725686Y-94762118D01*
X156721538Y-94720000D01*
X156710974Y-94612740D01*
X156667402Y-94469103D01*
X156627025Y-94393563D01*
X156596645Y-94336725D01*
X156525279Y-94249766D01*
X156501422Y-94220696D01*
X156472352Y-94196839D01*
X152462000Y-90186488D01*
X152462000Y-87466707D01*
X152614759Y-87364637D01*
X152814637Y-87164759D01*
X152971680Y-86929727D01*
X153079853Y-86668574D01*
X153135000Y-86391335D01*
X153135000Y-86108665D01*
X153079853Y-85831426D01*
X152971680Y-85570273D01*
X152814637Y-85335241D01*
X152614759Y-85135363D01*
X152379727Y-84978320D01*
X152118574Y-84870147D01*
X151841335Y-84815000D01*
X151558665Y-84815000D01*
X151281426Y-84870147D01*
X151020273Y-84978320D01*
X150785241Y-85135363D01*
X150623346Y-85297258D01*
X150592423Y-85259579D01*
X150563353Y-85235722D01*
X140399157Y-75071527D01*
X140435000Y-74891335D01*
X140435000Y-74608665D01*
X140379853Y-74331426D01*
X140271680Y-74070273D01*
X140114637Y-73835241D01*
X139914759Y-73635363D01*
X139679727Y-73478320D01*
X139418574Y-73370147D01*
X139141335Y-73315000D01*
X138858665Y-73315000D01*
X138581426Y-73370147D01*
X138580999Y-73370324D01*
X138580999Y-69996631D01*
X138928473Y-69649157D01*
X139108665Y-69685000D01*
X139391335Y-69685000D01*
X139668574Y-69629853D01*
X139929727Y-69521680D01*
X140164759Y-69364637D01*
X140364637Y-69164759D01*
X140521680Y-68929727D01*
X140629853Y-68668574D01*
X140685000Y-68391335D01*
X140685000Y-68108665D01*
X150515000Y-68108665D01*
X150515000Y-68391335D01*
X150570147Y-68668574D01*
X150678320Y-68929727D01*
X150835363Y-69164759D01*
X151035241Y-69364637D01*
X151270273Y-69521680D01*
X151531426Y-69629853D01*
X151808665Y-69685000D01*
X152091335Y-69685000D01*
X152368574Y-69629853D01*
X152629727Y-69521680D01*
X152864759Y-69364637D01*
X153064637Y-69164759D01*
X153221680Y-68929727D01*
X153329853Y-68668574D01*
X153385000Y-68391335D01*
X153385000Y-68108665D01*
X153329853Y-67831426D01*
X153221680Y-67570273D01*
X153064637Y-67335241D01*
X152864759Y-67135363D01*
X152629727Y-66978320D01*
X152368574Y-66870147D01*
X152091335Y-66815000D01*
X151808665Y-66815000D01*
X151531426Y-66870147D01*
X151270273Y-66978320D01*
X151035241Y-67135363D01*
X150835363Y-67335241D01*
X150678320Y-67570273D01*
X150570147Y-67831426D01*
X150515000Y-68108665D01*
X140685000Y-68108665D01*
X140629853Y-67831426D01*
X140521680Y-67570273D01*
X140364637Y-67335241D01*
X140164759Y-67135363D01*
X139929727Y-66978320D01*
X139668574Y-66870147D01*
X139391335Y-66815000D01*
X139108665Y-66815000D01*
X138831426Y-66870147D01*
X138570273Y-66978320D01*
X138335241Y-67135363D01*
X138135363Y-67335241D01*
X137978320Y-67570273D01*
X137870147Y-67831426D01*
X137815000Y-68108665D01*
X137815000Y-68391335D01*
X137850843Y-68571527D01*
X137306648Y-69115722D01*
X137277578Y-69139579D01*
X137253721Y-69168649D01*
X137253720Y-69168650D01*
X137182354Y-69255609D01*
X137111598Y-69387986D01*
X137068026Y-69531623D01*
X137053313Y-69681001D01*
X137057000Y-69718434D01*
X137056999Y-86751711D01*
X137022423Y-86709579D01*
X136993353Y-86685722D01*
X136691679Y-86384048D01*
X136735000Y-86166260D01*
X136735000Y-85873740D01*
X136677932Y-85586842D01*
X136565990Y-85316589D01*
X136403475Y-85073368D01*
X136196632Y-84866525D01*
X136022240Y-84750000D01*
X136196632Y-84633475D01*
X136403475Y-84426632D01*
X136565990Y-84183411D01*
X136677932Y-83913158D01*
X136735000Y-83626260D01*
X136735000Y-83333740D01*
X136677932Y-83046842D01*
X136565990Y-82776589D01*
X136403475Y-82533368D01*
X136196632Y-82326525D01*
X136022240Y-82210000D01*
X136196632Y-82093475D01*
X136403475Y-81886632D01*
X136565990Y-81643411D01*
X136677932Y-81373158D01*
X136735000Y-81086260D01*
X136735000Y-80793740D01*
X136677932Y-80506842D01*
X136565990Y-80236589D01*
X136403475Y-79993368D01*
X136196632Y-79786525D01*
X136022240Y-79670000D01*
X136196632Y-79553475D01*
X136403475Y-79346632D01*
X136565990Y-79103411D01*
X136677932Y-78833158D01*
X136735000Y-78546260D01*
X136735000Y-78253740D01*
X136677932Y-77966842D01*
X136565990Y-77696589D01*
X136403475Y-77453368D01*
X136196632Y-77246525D01*
X136022240Y-77130000D01*
X136196632Y-77013475D01*
X136403475Y-76806632D01*
X136565990Y-76563411D01*
X136677932Y-76293158D01*
X136735000Y-76006260D01*
X136735000Y-75713740D01*
X136677932Y-75426842D01*
X136565990Y-75156589D01*
X136403475Y-74913368D01*
X136196632Y-74706525D01*
X136022240Y-74590000D01*
X136196632Y-74473475D01*
X136403475Y-74266632D01*
X136565990Y-74023411D01*
X136677932Y-73753158D01*
X136735000Y-73466260D01*
X136735000Y-73173740D01*
X136677932Y-72886842D01*
X136565990Y-72616589D01*
X136403475Y-72373368D01*
X136196632Y-72166525D01*
X135953411Y-72004010D01*
X135683158Y-71892068D01*
X135396260Y-71835000D01*
X135103740Y-71835000D01*
X134816842Y-71892068D01*
X134546589Y-72004010D01*
X134303368Y-72166525D01*
X134096525Y-72373368D01*
X133980000Y-72547760D01*
X133863475Y-72373368D01*
X133656632Y-72166525D01*
X133413411Y-72004010D01*
X133143158Y-71892068D01*
X132856260Y-71835000D01*
X132563740Y-71835000D01*
X132276842Y-71892068D01*
X132006589Y-72004010D01*
X131763368Y-72166525D01*
X131556525Y-72373368D01*
X131394010Y-72616589D01*
X131282068Y-72886842D01*
X131225000Y-73173740D01*
X131135000Y-73173740D01*
X131135000Y-69239732D01*
X131312835Y-69669064D01*
X131582934Y-70073295D01*
X131926705Y-70417066D01*
X132330936Y-70687165D01*
X132780094Y-70873212D01*
X133256917Y-70968058D01*
X133743083Y-70968058D01*
X134219906Y-70873212D01*
X134669064Y-70687165D01*
X135073295Y-70417066D01*
X135417066Y-70073295D01*
X135687165Y-69669064D01*
X135873212Y-69219906D01*
X135968058Y-68743083D01*
X135968058Y-68256917D01*
X135873212Y-67780094D01*
X135687165Y-67330936D01*
X135417066Y-66926705D01*
X135073295Y-66582934D01*
X134669064Y-66312835D01*
X134239732Y-66135000D01*
X155760268Y-66135000D01*
X155330936Y-66312835D01*
%TA.AperFunction,Conductor*%
D20*
G36*
X155330936Y-66312835D02*
G01*
X154926705Y-66582934D01*
X154582934Y-66926705D01*
X154312835Y-67330936D01*
X154126788Y-67780094D01*
X154031942Y-68256917D01*
X154031942Y-68743083D01*
X154126788Y-69219906D01*
X154312835Y-69669064D01*
X154582934Y-70073295D01*
X154926705Y-70417066D01*
X155330936Y-70687165D01*
X155780094Y-70873212D01*
X156256917Y-70968058D01*
X156743083Y-70968058D01*
X157219906Y-70873212D01*
X157669064Y-70687165D01*
X158073295Y-70417066D01*
X158417066Y-70073295D01*
X158687165Y-69669064D01*
X158873212Y-69219906D01*
X158968058Y-68743083D01*
X158968058Y-68256917D01*
X158873212Y-67780094D01*
X158687165Y-67330936D01*
X158417066Y-66926705D01*
X158073295Y-66582934D01*
X157669064Y-66312835D01*
X157239732Y-66135000D01*
X171944489Y-66135000D01*
X172361189Y-66175858D01*
X172708625Y-66280755D01*
X173029061Y-66451134D01*
X173310309Y-66680514D01*
X173541643Y-66960148D01*
X173714256Y-67279391D01*
X173821577Y-67626085D01*
X173865000Y-68039229D01*
X173865001Y-126944479D01*
X173824142Y-127361189D01*
X173719246Y-127708622D01*
X173548865Y-128029064D01*
X173319486Y-128310309D01*
X173039852Y-128541643D01*
X172720609Y-128714256D01*
X172373912Y-128821577D01*
X171960770Y-128865000D01*
X157239732Y-128865000D01*
X157669064Y-128687165D01*
X158073295Y-128417066D01*
X158417066Y-128073295D01*
X158687165Y-127669064D01*
X158873212Y-127219906D01*
X158968058Y-126743083D01*
X158968058Y-126256917D01*
X158873212Y-125780094D01*
X158687165Y-125330936D01*
X158417066Y-124926705D01*
X158073295Y-124582934D01*
X157669064Y-124312835D01*
X157219906Y-124126788D01*
X156743083Y-124031942D01*
X156256917Y-124031942D01*
X155780094Y-124126788D01*
X155330936Y-124312835D01*
X154926705Y-124582934D01*
X154582934Y-124926705D01*
X154312835Y-125330936D01*
X154126788Y-125780094D01*
X154031942Y-126256917D01*
X154031942Y-126743083D01*
X154126788Y-127219906D01*
X154312835Y-127669064D01*
X154582934Y-128073295D01*
X154926705Y-128417066D01*
X155330936Y-128687165D01*
X155760268Y-128865000D01*
X134239732Y-128865000D01*
X134669064Y-128687165D01*
X135073295Y-128417066D01*
X135417066Y-128073295D01*
X135687165Y-127669064D01*
X135873212Y-127219906D01*
X135968058Y-126743083D01*
X135968058Y-126256917D01*
X135958535Y-126209039D01*
X139858096Y-126209039D01*
X139898754Y-126343087D01*
X140018963Y-126597420D01*
X140186481Y-126823414D01*
X140394869Y-127012385D01*
X140636119Y-127157070D01*
X140900960Y-127251909D01*
X141123000Y-127130624D01*
X141123000Y-125987000D01*
X141377000Y-125987000D01*
X141377000Y-127130624D01*
X141599040Y-127251909D01*
X141863881Y-127157070D01*
X142105131Y-127012385D01*
X142313519Y-126823414D01*
X142481037Y-126597420D01*
X142601246Y-126343087D01*
X142641904Y-126209039D01*
X142519915Y-125987000D01*
X141377000Y-125987000D01*
X141123000Y-125987000D01*
X139980085Y-125987000D01*
X139858096Y-126209039D01*
X135958535Y-126209039D01*
X135873212Y-125780094D01*
X135687165Y-125330936D01*
X135417066Y-124926705D01*
X135073295Y-124582934D01*
X134669064Y-124312835D01*
X134219906Y-124126788D01*
X133743083Y-124031942D01*
X133256917Y-124031942D01*
X132780094Y-124126788D01*
X132330936Y-124312835D01*
X131926705Y-124582934D01*
X131582934Y-124926705D01*
X131312835Y-125330936D01*
X131135000Y-125760268D01*
X131135000Y-73173740D01*
X131225000Y-73173740D01*
X131225000Y-73466260D01*
X131282068Y-73753158D01*
X131394010Y-74023411D01*
X131556525Y-74266632D01*
X131763368Y-74473475D01*
X131937760Y-74590000D01*
X131763368Y-74706525D01*
X131556525Y-74913368D01*
X131394010Y-75156589D01*
X131282068Y-75426842D01*
X131225000Y-75713740D01*
X131225000Y-76006260D01*
X131282068Y-76293158D01*
X131394010Y-76563411D01*
X131556525Y-76806632D01*
X131763368Y-77013475D01*
X131937760Y-77130000D01*
X131763368Y-77246525D01*
X131556525Y-77453368D01*
X131394010Y-77696589D01*
X131282068Y-77966842D01*
X131225000Y-78253740D01*
X131225000Y-78546260D01*
X131282068Y-78833158D01*
X131394010Y-79103411D01*
X131556525Y-79346632D01*
X131763368Y-79553475D01*
X131937760Y-79670000D01*
X131763368Y-79786525D01*
X131556525Y-79993368D01*
X131394010Y-80236589D01*
X131282068Y-80506842D01*
X131225000Y-80793740D01*
X131225000Y-81086260D01*
X131282068Y-81373158D01*
X131394010Y-81643411D01*
X131556525Y-81886632D01*
X131763368Y-82093475D01*
X131937760Y-82210000D01*
X131763368Y-82326525D01*
X131556525Y-82533368D01*
X131394010Y-82776589D01*
X131282068Y-83046842D01*
X131225000Y-83333740D01*
X131225000Y-83626260D01*
X131282068Y-83913158D01*
X131394010Y-84183411D01*
X131556525Y-84426632D01*
X131763368Y-84633475D01*
X131937760Y-84750000D01*
X131763368Y-84866525D01*
X131556525Y-85073368D01*
X131394010Y-85316589D01*
X131282068Y-85586842D01*
X131225000Y-85873740D01*
X131225000Y-86166260D01*
X131282068Y-86453158D01*
X131394010Y-86723411D01*
X131556525Y-86966632D01*
X131763368Y-87173475D01*
X131937760Y-87290000D01*
X131763368Y-87406525D01*
X131556525Y-87613368D01*
X131394010Y-87856589D01*
X131282068Y-88126842D01*
X131225000Y-88413740D01*
X131225000Y-88706260D01*
X131282068Y-88993158D01*
X131394010Y-89263411D01*
X131556525Y-89506632D01*
X131763368Y-89713475D01*
X131937760Y-89830000D01*
X131763368Y-89946525D01*
X131556525Y-90153368D01*
X131394010Y-90396589D01*
X131282068Y-90666842D01*
X131225000Y-90953740D01*
X131225000Y-91246260D01*
X131282068Y-91533158D01*
X131394010Y-91803411D01*
X131556525Y-92046632D01*
X131763368Y-92253475D01*
X131937760Y-92370000D01*
X131763368Y-92486525D01*
X131556525Y-92693368D01*
X131394010Y-92936589D01*
X131282068Y-93206842D01*
X131225000Y-93493740D01*
X131225000Y-93786260D01*
X131282068Y-94073158D01*
X131394010Y-94343411D01*
X131556525Y-94586632D01*
X131763368Y-94793475D01*
X131937760Y-94910000D01*
X131763368Y-95026525D01*
X131556525Y-95233368D01*
X131394010Y-95476589D01*
X131282068Y-95746842D01*
X131225000Y-96033740D01*
X131225000Y-96326260D01*
X131282068Y-96613158D01*
X131394010Y-96883411D01*
X131556525Y-97126632D01*
X131763368Y-97333475D01*
X131937760Y-97450000D01*
X131763368Y-97566525D01*
X131556525Y-97773368D01*
X131394010Y-98016589D01*
X131282068Y-98286842D01*
X131225000Y-98573740D01*
X131225000Y-98866260D01*
X131282068Y-99153158D01*
X131394010Y-99423411D01*
X131556525Y-99666632D01*
X131763368Y-99873475D01*
X131937760Y-99990000D01*
X131763368Y-100106525D01*
X131556525Y-100313368D01*
X131394010Y-100556589D01*
X131282068Y-100826842D01*
X131225000Y-101113740D01*
X131225000Y-101406260D01*
X131282068Y-101693158D01*
X131394010Y-101963411D01*
X131556525Y-102206632D01*
X131763368Y-102413475D01*
X131937760Y-102530000D01*
X131763368Y-102646525D01*
X131556525Y-102853368D01*
X131394010Y-103096589D01*
X131282068Y-103366842D01*
X131225000Y-103653740D01*
X131225000Y-103946260D01*
X131282068Y-104233158D01*
X131394010Y-104503411D01*
X131556525Y-104746632D01*
X131763368Y-104953475D01*
X131937760Y-105070000D01*
X131763368Y-105186525D01*
X131556525Y-105393368D01*
X131394010Y-105636589D01*
X131282068Y-105906842D01*
X131225000Y-106193740D01*
X131225000Y-106486260D01*
X131282068Y-106773158D01*
X131394010Y-107043411D01*
X131556525Y-107286632D01*
X131763368Y-107493475D01*
X131937760Y-107610000D01*
X131763368Y-107726525D01*
X131556525Y-107933368D01*
X131394010Y-108176589D01*
X131282068Y-108446842D01*
X131225000Y-108733740D01*
X131225000Y-109026260D01*
X131282068Y-109313158D01*
X131394010Y-109583411D01*
X131556525Y-109826632D01*
X131763368Y-110033475D01*
X131937760Y-110150000D01*
X131763368Y-110266525D01*
X131556525Y-110473368D01*
X131394010Y-110716589D01*
X131282068Y-110986842D01*
X131225000Y-111273740D01*
X131225000Y-111566260D01*
X131282068Y-111853158D01*
X131394010Y-112123411D01*
X131556525Y-112366632D01*
X131763368Y-112573475D01*
X131937760Y-112690000D01*
X131763368Y-112806525D01*
X131556525Y-113013368D01*
X131394010Y-113256589D01*
X131282068Y-113526842D01*
X131225000Y-113813740D01*
X131225000Y-114106260D01*
X131282068Y-114393158D01*
X131394010Y-114663411D01*
X131556525Y-114906632D01*
X131763368Y-115113475D01*
X131937760Y-115230000D01*
X131763368Y-115346525D01*
X131556525Y-115553368D01*
X131394010Y-115796589D01*
X131282068Y-116066842D01*
X131225000Y-116353740D01*
X131225000Y-116646260D01*
X131282068Y-116933158D01*
X131394010Y-117203411D01*
X131556525Y-117446632D01*
X131763368Y-117653475D01*
X131937760Y-117770000D01*
X131763368Y-117886525D01*
X131556525Y-118093368D01*
X131394010Y-118336589D01*
X131282068Y-118606842D01*
X131225000Y-118893740D01*
X131225000Y-119186260D01*
X131282068Y-119473158D01*
X131394010Y-119743411D01*
X131556525Y-119986632D01*
X131763368Y-120193475D01*
X131937760Y-120310000D01*
X131763368Y-120426525D01*
X131556525Y-120633368D01*
X131394010Y-120876589D01*
X131282068Y-121146842D01*
X131225000Y-121433740D01*
X131225000Y-121726260D01*
X131282068Y-122013158D01*
X131394010Y-122283411D01*
X131556525Y-122526632D01*
X131763368Y-122733475D01*
X132006589Y-122895990D01*
X132276842Y-123007932D01*
X132563740Y-123065000D01*
X132856260Y-123065000D01*
X133143158Y-123007932D01*
X133413411Y-122895990D01*
X133656632Y-122733475D01*
X133788487Y-122601620D01*
X133810498Y-122674180D01*
X133869463Y-122784494D01*
X133948815Y-122881185D01*
X134045506Y-122960537D01*
X134155820Y-123019502D01*
X134275518Y-123055812D01*
X134400000Y-123068072D01*
X136100000Y-123068072D01*
X136224482Y-123055812D01*
X136344180Y-123019502D01*
X136454494Y-122960537D01*
X136551185Y-122881185D01*
X136630537Y-122784494D01*
X136689502Y-122674180D01*
X136725812Y-122554482D01*
X136738072Y-122430000D01*
X136738072Y-121169558D01*
X139816498Y-118091133D01*
X139815000Y-118098665D01*
X139815000Y-118381335D01*
X139870147Y-118658574D01*
X139978320Y-118919727D01*
X140135363Y-119154759D01*
X140335241Y-119354637D01*
X140567759Y-119510000D01*
X140335241Y-119665363D01*
X140135363Y-119865241D01*
X139978320Y-120100273D01*
X139870147Y-120361426D01*
X139815000Y-120638665D01*
X139815000Y-120921335D01*
X139870147Y-121198574D01*
X139978320Y-121459727D01*
X140135363Y-121694759D01*
X140335241Y-121894637D01*
X140567759Y-122050000D01*
X140335241Y-122205363D01*
X140135363Y-122405241D01*
X139978320Y-122640273D01*
X139870147Y-122901426D01*
X139815000Y-123178665D01*
X139815000Y-123461335D01*
X139870147Y-123738574D01*
X139978320Y-123999727D01*
X140135363Y-124234759D01*
X140335241Y-124434637D01*
X140570273Y-124591680D01*
X140580865Y-124596067D01*
X140394869Y-124707615D01*
X140186481Y-124896586D01*
X140018963Y-125122580D01*
X139898754Y-125376913D01*
X139858096Y-125510961D01*
X139980085Y-125733000D01*
X141123000Y-125733000D01*
X141123000Y-125713000D01*
X141377000Y-125713000D01*
X141377000Y-125733000D01*
X142519915Y-125733000D01*
X142641904Y-125510961D01*
X142601246Y-125376913D01*
X142481037Y-125122580D01*
X142313519Y-124896586D01*
X142105131Y-124707615D01*
X141919135Y-124596067D01*
X141929727Y-124591680D01*
X142164759Y-124434637D01*
X142364637Y-124234759D01*
X142521680Y-123999727D01*
X142629853Y-123738574D01*
X142685000Y-123461335D01*
X142685000Y-123178665D01*
X142629853Y-122901426D01*
X142521680Y-122640273D01*
X142364637Y-122405241D01*
X142164759Y-122205363D01*
X141932241Y-122050000D01*
X142164759Y-121894637D01*
X142364637Y-121694759D01*
X142521680Y-121459727D01*
X142629853Y-121198574D01*
X142685000Y-120921335D01*
X142685000Y-120638665D01*
X142629853Y-120361426D01*
X142521680Y-120100273D01*
X142364637Y-119865241D01*
X142164759Y-119665363D01*
X141932241Y-119510000D01*
X142164759Y-119354637D01*
X142364637Y-119154759D01*
X142521680Y-118919727D01*
X142629853Y-118658574D01*
X142685000Y-118381335D01*
X142685000Y-118098665D01*
X142629853Y-117821426D01*
X142521680Y-117560273D01*
X142398937Y-117376575D01*
X142943354Y-116832159D01*
X142972423Y-116808303D01*
X143067646Y-116692273D01*
X143138403Y-116559896D01*
X143181975Y-116416259D01*
X143193001Y-116304307D01*
X143193001Y-116304305D01*
X143196687Y-116266882D01*
X143193001Y-116229459D01*
X143193001Y-104218424D01*
X143196687Y-104181001D01*
X143190151Y-104114637D01*
X143181975Y-104031623D01*
X143138403Y-103887986D01*
X143105466Y-103826365D01*
X143067646Y-103755608D01*
X143005371Y-103679727D01*
X142972423Y-103639579D01*
X142943347Y-103615717D01*
X142688072Y-103360442D01*
X142688072Y-102765703D01*
X145402970Y-105480601D01*
X145402969Y-115497546D01*
X145399283Y-115534969D01*
X145402969Y-115572392D01*
X145402969Y-115572394D01*
X145413995Y-115684346D01*
X145457567Y-115827983D01*
X145457568Y-115827984D01*
X145528324Y-115960361D01*
X145555123Y-115993015D01*
X145623547Y-116076391D01*
X145652623Y-116100253D01*
X147470843Y-117918473D01*
X147435000Y-118098665D01*
X147435000Y-118381335D01*
X147490147Y-118658574D01*
X147598320Y-118919727D01*
X147755363Y-119154759D01*
X147955241Y-119354637D01*
X148187759Y-119510000D01*
X147955241Y-119665363D01*
X147755363Y-119865241D01*
X147598320Y-120100273D01*
X147490147Y-120361426D01*
X147435000Y-120638665D01*
X147435000Y-120921335D01*
X147490147Y-121198574D01*
X147598320Y-121459727D01*
X147755363Y-121694759D01*
X147955241Y-121894637D01*
X148187759Y-122050000D01*
X147955241Y-122205363D01*
X147755363Y-122405241D01*
X147598320Y-122640273D01*
X147490147Y-122901426D01*
X147435000Y-123178665D01*
X147435000Y-123461335D01*
X147490147Y-123738574D01*
X147598320Y-123999727D01*
X147755363Y-124234759D01*
X147955241Y-124434637D01*
X148187759Y-124590000D01*
X147955241Y-124745363D01*
X147755363Y-124945241D01*
X147598320Y-125180273D01*
X147490147Y-125441426D01*
X147435000Y-125718665D01*
X147435000Y-126001335D01*
X147490147Y-126278574D01*
X147598320Y-126539727D01*
X147755363Y-126774759D01*
X147955241Y-126974637D01*
X148190273Y-127131680D01*
X148451426Y-127239853D01*
X148728665Y-127295000D01*
X149011335Y-127295000D01*
X149288574Y-127239853D01*
X149549727Y-127131680D01*
X149784759Y-126974637D01*
X149984637Y-126774759D01*
X150141680Y-126539727D01*
X150249853Y-126278574D01*
X150305000Y-126001335D01*
X150305000Y-125718665D01*
X150249853Y-125441426D01*
X150141680Y-125180273D01*
X149984637Y-124945241D01*
X149784759Y-124745363D01*
X149552241Y-124590000D01*
X149784759Y-124434637D01*
X149984637Y-124234759D01*
X150141680Y-123999727D01*
X150249853Y-123738574D01*
X150305000Y-123461335D01*
X150305000Y-123178665D01*
X150249853Y-122901426D01*
X150141680Y-122640273D01*
X149984637Y-122405241D01*
X149784759Y-122205363D01*
X149552241Y-122050000D01*
X149784759Y-121894637D01*
X149984637Y-121694759D01*
X150141680Y-121459727D01*
X150249853Y-121198574D01*
X150305000Y-120921335D01*
X150305000Y-120638665D01*
X150249853Y-120361426D01*
X150141680Y-120100273D01*
X150047953Y-119960000D01*
X163607857Y-119960000D01*
X163607857Y-123780000D01*
X169892143Y-123780000D01*
X169892143Y-119960000D01*
X163607857Y-119960000D01*
X150047953Y-119960000D01*
X149984637Y-119865241D01*
X149784759Y-119665363D01*
X149552241Y-119510000D01*
X149784759Y-119354637D01*
X149984637Y-119154759D01*
X150141680Y-118919727D01*
X150249853Y-118658574D01*
X150305000Y-118381335D01*
X150305000Y-118098665D01*
X150249853Y-117821426D01*
X150141680Y-117560273D01*
X149984637Y-117325241D01*
X149784759Y-117125363D01*
X149552241Y-116970000D01*
X149784759Y-116814637D01*
X149984637Y-116614759D01*
X150141680Y-116379727D01*
X150249853Y-116118574D01*
X150305000Y-115841335D01*
X150305000Y-115558665D01*
X150249853Y-115281426D01*
X150141680Y-115020273D01*
X149984637Y-114785241D01*
X149784759Y-114585363D01*
X149552241Y-114430000D01*
X149784759Y-114274637D01*
X149984637Y-114074759D01*
X150141680Y-113839727D01*
X150249853Y-113578574D01*
X150305000Y-113301335D01*
X150305000Y-113018665D01*
X150249853Y-112741426D01*
X150141680Y-112480273D01*
X149984637Y-112245241D01*
X149784759Y-112045363D01*
X149552241Y-111890000D01*
X149784759Y-111734637D01*
X149984637Y-111534759D01*
X150141680Y-111299727D01*
X150249853Y-111038574D01*
X150305000Y-110761335D01*
X150305000Y-110478665D01*
X150249853Y-110201426D01*
X150141680Y-109940273D01*
X149984637Y-109705241D01*
X149784759Y-109505363D01*
X149552241Y-109350000D01*
X149784759Y-109194637D01*
X149984637Y-108994759D01*
X150141680Y-108759727D01*
X150249853Y-108498574D01*
X150305000Y-108221335D01*
X150305000Y-107938665D01*
X150269157Y-107758473D01*
X150563348Y-107464282D01*
X150592423Y-107440421D01*
X150652858Y-107366780D01*
X150687646Y-107324392D01*
X150758402Y-107192015D01*
X150758403Y-107192014D01*
X150801975Y-107048377D01*
X150813001Y-106936425D01*
X150813001Y-106936422D01*
X150816687Y-106898999D01*
X150813001Y-106861576D01*
X150813001Y-99133186D01*
X150938001Y-99216708D01*
X150938000Y-111952577D01*
X150934314Y-111990000D01*
X150938000Y-112027423D01*
X150938000Y-112027425D01*
X150949026Y-112139377D01*
X150992598Y-112283014D01*
X150992599Y-112283015D01*
X151063355Y-112415392D01*
X151102983Y-112463678D01*
X151158578Y-112531422D01*
X151187654Y-112555284D01*
X154475799Y-115843430D01*
X154425000Y-116098816D01*
X154425000Y-116401184D01*
X154483989Y-116697743D01*
X154599701Y-116977095D01*
X154767688Y-117228505D01*
X154981495Y-117442312D01*
X155232905Y-117610299D01*
X155512257Y-117726011D01*
X155808816Y-117785000D01*
X156111184Y-117785000D01*
X156407743Y-117726011D01*
X156687095Y-117610299D01*
X156938505Y-117442312D01*
X157004944Y-117375873D01*
X157010498Y-117394180D01*
X157069463Y-117504494D01*
X157148815Y-117601185D01*
X157245506Y-117680537D01*
X157355820Y-117739502D01*
X157475518Y-117775812D01*
X157600000Y-117788072D01*
X159400000Y-117788072D01*
X159524482Y-117775812D01*
X159644180Y-117739502D01*
X159754494Y-117680537D01*
X159851185Y-117601185D01*
X159930537Y-117504494D01*
X159989502Y-117394180D01*
X160025812Y-117274482D01*
X160038072Y-117150000D01*
X160038072Y-115350000D01*
X160025812Y-115225518D01*
X159989502Y-115105820D01*
X159930537Y-114995506D01*
X159851185Y-114898815D01*
X159754494Y-114819463D01*
X159644180Y-114760498D01*
X159524482Y-114724188D01*
X159400000Y-114711928D01*
X159262000Y-114711928D01*
X159262000Y-110777000D01*
X160258525Y-109780475D01*
X163535000Y-109780475D01*
X163535000Y-110299525D01*
X163636261Y-110808601D01*
X163834893Y-111288141D01*
X164123262Y-111719715D01*
X164490285Y-112086738D01*
X164921859Y-112375107D01*
X165401399Y-112573739D01*
X165910475Y-112675000D01*
X166429525Y-112675000D01*
X166938601Y-112573739D01*
X167418141Y-112375107D01*
X167849715Y-112086738D01*
X168216738Y-111719715D01*
X168505107Y-111288141D01*
X168703739Y-110808601D01*
X168805000Y-110299525D01*
X168805000Y-109780475D01*
X168703739Y-109271399D01*
X168505107Y-108791859D01*
X168216738Y-108360285D01*
X167849715Y-107993262D01*
X167418141Y-107704893D01*
X166938601Y-107506261D01*
X166429525Y-107405000D01*
X165910475Y-107405000D01*
X165401399Y-107506261D01*
X164921859Y-107704893D01*
X164490285Y-107993262D01*
X164123262Y-108360285D01*
X163834893Y-108791859D01*
X163636261Y-109271399D01*
X163535000Y-109780475D01*
X160258525Y-109780475D01*
X165262353Y-104776648D01*
X165291422Y-104752792D01*
X165318772Y-104719466D01*
X165386645Y-104636763D01*
X165457401Y-104504386D01*
X165457402Y-104504385D01*
X165500974Y-104360748D01*
X165506949Y-104300082D01*
X165664759Y-104194637D01*
X165864637Y-103994759D01*
X166021680Y-103759727D01*
X166129853Y-103498574D01*
X166185000Y-103221335D01*
X166185000Y-102938665D01*
X166129853Y-102661426D01*
X166045177Y-102457000D01*
X166373293Y-102457000D01*
X166475363Y-102609759D01*
X166675241Y-102809637D01*
X166910273Y-102966680D01*
X167171426Y-103074853D01*
X167448665Y-103130000D01*
X167731335Y-103130000D01*
X168008574Y-103074853D01*
X168269727Y-102966680D01*
X168504759Y-102809637D01*
X168704637Y-102609759D01*
X168861680Y-102374727D01*
X168969853Y-102113574D01*
X169025000Y-101836335D01*
X169025000Y-101553665D01*
X168969853Y-101276426D01*
X168861680Y-101015273D01*
X168704637Y-100780241D01*
X168504759Y-100580363D01*
X168269727Y-100423320D01*
X168008574Y-100315147D01*
X167982699Y-100310000D01*
X168008574Y-100304853D01*
X168269727Y-100196680D01*
X168504759Y-100039637D01*
X168704637Y-99839759D01*
X168861680Y-99604727D01*
X168969853Y-99343574D01*
X169025000Y-99066335D01*
X169025000Y-98783665D01*
X168969853Y-98506426D01*
X168861680Y-98245273D01*
X168704637Y-98010241D01*
X168504759Y-97810363D01*
X168269727Y-97653320D01*
X168008574Y-97545147D01*
X167982699Y-97540000D01*
X168008574Y-97534853D01*
X168269727Y-97426680D01*
X168504759Y-97269637D01*
X168704637Y-97069759D01*
X168861680Y-96834727D01*
X168969853Y-96573574D01*
X169025000Y-96296335D01*
X169025000Y-96013665D01*
X168969853Y-95736426D01*
X168861680Y-95475273D01*
X168704637Y-95240241D01*
X168504759Y-95040363D01*
X168269727Y-94883320D01*
X168008574Y-94775147D01*
X167982699Y-94770000D01*
X168008574Y-94764853D01*
X168269727Y-94656680D01*
X168504759Y-94499637D01*
X168704637Y-94299759D01*
X168861680Y-94064727D01*
X168969853Y-93803574D01*
X169025000Y-93526335D01*
X169025000Y-93243665D01*
X168969853Y-92966426D01*
X168861680Y-92705273D01*
X168704637Y-92470241D01*
X168504759Y-92270363D01*
X168352000Y-92168293D01*
X168352000Y-90021305D01*
X168355686Y-89983882D01*
X168347070Y-89896400D01*
X168340974Y-89834504D01*
X168297402Y-89690867D01*
X168226646Y-89558491D01*
X168226645Y-89558489D01*
X168155279Y-89471530D01*
X168131422Y-89442460D01*
X168102353Y-89418604D01*
X166358749Y-87675000D01*
X166429525Y-87675000D01*
X166938601Y-87573739D01*
X167418141Y-87375107D01*
X167849715Y-87086738D01*
X168216738Y-86719715D01*
X168505107Y-86288141D01*
X168703739Y-85808601D01*
X168805000Y-85299525D01*
X168805000Y-84780475D01*
X168703739Y-84271399D01*
X168505107Y-83791859D01*
X168216738Y-83360285D01*
X167849715Y-82993262D01*
X167418141Y-82704893D01*
X166938601Y-82506261D01*
X166429525Y-82405000D01*
X165910475Y-82405000D01*
X165401399Y-82506261D01*
X164921859Y-82704893D01*
X164490285Y-82993262D01*
X164123262Y-83360285D01*
X163834893Y-83791859D01*
X163636261Y-84271399D01*
X163535000Y-84780475D01*
X163535000Y-84851252D01*
X159468967Y-80785219D01*
X159564482Y-80775812D01*
X159684180Y-80739502D01*
X159794494Y-80680537D01*
X159891185Y-80601185D01*
X159970537Y-80504494D01*
X160029502Y-80394180D01*
X160065812Y-80274482D01*
X160078072Y-80150000D01*
X160078072Y-78350000D01*
X160065812Y-78225518D01*
X160029502Y-78105820D01*
X159970537Y-77995506D01*
X159891185Y-77898815D01*
X159794494Y-77819463D01*
X159684180Y-77760498D01*
X159564482Y-77724188D01*
X159440000Y-77711928D01*
X157640000Y-77711928D01*
X157515518Y-77724188D01*
X157395820Y-77760498D01*
X157285506Y-77819463D01*
X157188815Y-77898815D01*
X157109463Y-77995506D01*
X157050498Y-78105820D01*
X157044944Y-78124127D01*
X156978505Y-78057688D01*
X156727095Y-77889701D01*
X156447743Y-77773989D01*
X156151184Y-77715000D01*
X155848816Y-77715000D01*
X155593430Y-77765799D01*
X153055353Y-75227723D01*
X153079853Y-75168574D01*
X153135000Y-74891335D01*
X153135000Y-74608665D01*
X153079853Y-74331426D01*
X152971680Y-74070273D01*
X152814637Y-73835241D01*
X152614759Y-73635363D01*
X152379727Y-73478320D01*
X152118574Y-73370147D01*
X151841335Y-73315000D01*
X151558665Y-73315000D01*
X151281426Y-73370147D01*
X151020273Y-73478320D01*
X150785241Y-73635363D01*
X150585363Y-73835241D01*
X150428320Y-74070273D01*
X150320147Y-74331426D01*
X150265000Y-74608665D01*
X150265000Y-74891335D01*
X150320147Y-75168574D01*
X150428320Y-75429727D01*
X150585363Y-75664759D01*
X150785241Y-75864637D01*
X151020273Y-76021680D01*
X151281426Y-76129853D01*
X151558665Y-76185000D01*
X151841335Y-76185000D01*
X151854709Y-76182340D01*
X154515799Y-78843430D01*
X154465000Y-79098816D01*
X154465000Y-79401184D01*
X154523989Y-79697743D01*
X154639701Y-79977095D01*
X154807688Y-80228505D01*
X155021495Y-80442312D01*
X155272905Y-80610299D01*
X155552257Y-80726011D01*
X155848816Y-80785000D01*
X156151184Y-80785000D01*
X156447743Y-80726011D01*
X156727095Y-80610299D01*
X156978505Y-80442312D01*
X157044944Y-80375873D01*
X157050498Y-80394180D01*
X157109463Y-80504494D01*
X157188815Y-80601185D01*
X157285506Y-80680537D01*
X157395820Y-80739502D01*
X157515518Y-80775812D01*
X157640000Y-80788072D01*
X157778001Y-80788072D01*
X157778001Y-80896449D01*
X157774314Y-80933882D01*
X157789027Y-81083260D01*
X157832599Y-81226897D01*
X157903355Y-81359274D01*
X157948891Y-81414759D01*
X157998579Y-81475304D01*
X158027649Y-81499161D01*
X166828000Y-90299513D01*
X166828000Y-90714567D01*
X164101086Y-87987654D01*
X164077224Y-87958578D01*
X163961194Y-87863355D01*
X163828817Y-87792598D01*
X163685180Y-87749026D01*
X163573228Y-87738000D01*
X163573225Y-87738000D01*
X163535802Y-87734314D01*
X163498379Y-87738000D01*
X159828072Y-87738000D01*
X159828072Y-87600000D01*
X159815812Y-87475518D01*
X159779502Y-87355820D01*
X159720537Y-87245506D01*
X159641185Y-87148815D01*
X159544494Y-87069463D01*
X159434180Y-87010498D01*
X159314482Y-86974188D01*
X159190000Y-86961928D01*
X157390000Y-86961928D01*
X157265518Y-86974188D01*
X157145820Y-87010498D01*
X157035506Y-87069463D01*
X156938815Y-87148815D01*
X156859463Y-87245506D01*
X156800498Y-87355820D01*
X156794944Y-87374127D01*
X156728505Y-87307688D01*
X156512000Y-87163024D01*
X156512000Y-84587423D01*
X156515686Y-84550000D01*
X156512000Y-84512574D01*
X156500974Y-84400622D01*
X156457402Y-84256985D01*
X156418076Y-84183411D01*
X156386645Y-84124607D01*
X156315279Y-84037648D01*
X156291422Y-84008578D01*
X156262352Y-83984721D01*
X153099157Y-80821527D01*
X153135000Y-80641335D01*
X153135000Y-80358665D01*
X153079853Y-80081426D01*
X152971680Y-79820273D01*
X152814637Y-79585241D01*
X152614759Y-79385363D01*
X152379727Y-79228320D01*
X152118574Y-79120147D01*
X151841335Y-79065000D01*
X151558665Y-79065000D01*
X151281426Y-79120147D01*
X151020273Y-79228320D01*
X150785241Y-79385363D01*
X150585363Y-79585241D01*
X150428320Y-79820273D01*
X150320147Y-80081426D01*
X150265000Y-80358665D01*
X150265000Y-80641335D01*
X150320147Y-80918574D01*
X150428320Y-81179727D01*
X150585363Y-81414759D01*
X150785241Y-81614637D01*
X151020273Y-81771680D01*
X151281426Y-81879853D01*
X151558665Y-81935000D01*
X151841335Y-81935000D01*
X152021527Y-81899157D01*
X154988001Y-84865632D01*
X154988000Y-87163024D01*
X154771495Y-87307688D01*
X154557688Y-87521495D01*
X154389701Y-87772905D01*
X154273989Y-88052257D01*
X154215000Y-88348816D01*
X154215000Y-88651184D01*
X154273989Y-88947743D01*
X154389701Y-89227095D01*
X154557688Y-89478505D01*
X154771495Y-89692312D01*
X155022905Y-89860299D01*
X155302257Y-89976011D01*
X155598816Y-90035000D01*
X155901184Y-90035000D01*
X156197743Y-89976011D01*
X156477095Y-89860299D01*
X156728505Y-89692312D01*
X156794944Y-89625873D01*
X156800498Y-89644180D01*
X156859463Y-89754494D01*
X156938815Y-89851185D01*
X157035506Y-89930537D01*
X157145820Y-89989502D01*
X157265518Y-90025812D01*
X157390000Y-90038072D01*
X159190000Y-90038072D01*
X159314482Y-90025812D01*
X159434180Y-89989502D01*
X159544494Y-89930537D01*
X159641185Y-89851185D01*
X159720537Y-89754494D01*
X159779502Y-89644180D01*
X159815812Y-89524482D01*
X159828072Y-89400000D01*
X159828072Y-89262000D01*
X163220172Y-89262000D01*
X164520099Y-90561928D01*
X163950000Y-90561928D01*
X163825518Y-90574188D01*
X163705820Y-90610498D01*
X163595506Y-90669463D01*
X163498815Y-90748815D01*
X163419463Y-90845506D01*
X163360498Y-90955820D01*
X163324188Y-91075518D01*
X163311928Y-91200000D01*
X163311928Y-92800000D01*
X163324188Y-92924482D01*
X163360498Y-93044180D01*
X163419463Y-93154494D01*
X163498815Y-93251185D01*
X163595506Y-93330537D01*
X163705820Y-93389502D01*
X163825518Y-93425812D01*
X163950000Y-93438072D01*
X164215725Y-93438072D01*
X164070273Y-93498320D01*
X163835241Y-93655363D01*
X163635363Y-93855241D01*
X163478320Y-94090273D01*
X163370147Y-94351426D01*
X163315000Y-94628665D01*
X163315000Y-94911335D01*
X163370147Y-95188574D01*
X163478320Y-95449727D01*
X163635363Y-95684759D01*
X163835241Y-95884637D01*
X164070273Y-96041680D01*
X164331426Y-96149853D01*
X164357301Y-96155000D01*
X164331426Y-96160147D01*
X164070273Y-96268320D01*
X163835241Y-96425363D01*
X163635363Y-96625241D01*
X163478320Y-96860273D01*
X163370147Y-97121426D01*
X163315000Y-97398665D01*
X163315000Y-97681335D01*
X163343812Y-97826182D01*
X162755284Y-97237654D01*
X162731422Y-97208578D01*
X162615392Y-97113355D01*
X162483015Y-97042598D01*
X162339378Y-96999026D01*
X162227426Y-96988000D01*
X162227423Y-96988000D01*
X162190000Y-96984314D01*
X162152577Y-96988000D01*
X160038072Y-96988000D01*
X160038072Y-96850000D01*
X160025812Y-96725518D01*
X159989502Y-96605820D01*
X159930537Y-96495506D01*
X159851185Y-96398815D01*
X159754494Y-96319463D01*
X159644180Y-96260498D01*
X159524482Y-96224188D01*
X159400000Y-96211928D01*
X157600000Y-96211928D01*
X157475518Y-96224188D01*
X157355820Y-96260498D01*
X157245506Y-96319463D01*
X157148815Y-96398815D01*
X157069463Y-96495506D01*
X157010498Y-96605820D01*
X157004944Y-96624127D01*
X156938505Y-96557688D01*
X156722000Y-96413024D01*
X156722000Y-94799541D01*
X156725686Y-94762118D01*
X156721538Y-94720000D01*
X156710974Y-94612740D01*
X156667402Y-94469103D01*
X156627025Y-94393563D01*
X156596645Y-94336725D01*
X156525279Y-94249766D01*
X156501422Y-94220696D01*
X156472352Y-94196839D01*
X152462000Y-90186488D01*
X152462000Y-87466707D01*
X152614759Y-87364637D01*
X152814637Y-87164759D01*
X152971680Y-86929727D01*
X153079853Y-86668574D01*
X153135000Y-86391335D01*
X153135000Y-86108665D01*
X153079853Y-85831426D01*
X152971680Y-85570273D01*
X152814637Y-85335241D01*
X152614759Y-85135363D01*
X152379727Y-84978320D01*
X152118574Y-84870147D01*
X151841335Y-84815000D01*
X151558665Y-84815000D01*
X151281426Y-84870147D01*
X151020273Y-84978320D01*
X150785241Y-85135363D01*
X150623346Y-85297258D01*
X150592423Y-85259579D01*
X150563353Y-85235722D01*
X140399157Y-75071527D01*
X140435000Y-74891335D01*
X140435000Y-74608665D01*
X140379853Y-74331426D01*
X140271680Y-74070273D01*
X140114637Y-73835241D01*
X139914759Y-73635363D01*
X139679727Y-73478320D01*
X139418574Y-73370147D01*
X139141335Y-73315000D01*
X138858665Y-73315000D01*
X138581426Y-73370147D01*
X138580999Y-73370324D01*
X138580999Y-69996631D01*
X138928473Y-69649157D01*
X139108665Y-69685000D01*
X139391335Y-69685000D01*
X139668574Y-69629853D01*
X139929727Y-69521680D01*
X140164759Y-69364637D01*
X140364637Y-69164759D01*
X140521680Y-68929727D01*
X140629853Y-68668574D01*
X140685000Y-68391335D01*
X140685000Y-68108665D01*
X150515000Y-68108665D01*
X150515000Y-68391335D01*
X150570147Y-68668574D01*
X150678320Y-68929727D01*
X150835363Y-69164759D01*
X151035241Y-69364637D01*
X151270273Y-69521680D01*
X151531426Y-69629853D01*
X151808665Y-69685000D01*
X152091335Y-69685000D01*
X152368574Y-69629853D01*
X152629727Y-69521680D01*
X152864759Y-69364637D01*
X153064637Y-69164759D01*
X153221680Y-68929727D01*
X153329853Y-68668574D01*
X153385000Y-68391335D01*
X153385000Y-68108665D01*
X153329853Y-67831426D01*
X153221680Y-67570273D01*
X153064637Y-67335241D01*
X152864759Y-67135363D01*
X152629727Y-66978320D01*
X152368574Y-66870147D01*
X152091335Y-66815000D01*
X151808665Y-66815000D01*
X151531426Y-66870147D01*
X151270273Y-66978320D01*
X151035241Y-67135363D01*
X150835363Y-67335241D01*
X150678320Y-67570273D01*
X150570147Y-67831426D01*
X150515000Y-68108665D01*
X140685000Y-68108665D01*
X140629853Y-67831426D01*
X140521680Y-67570273D01*
X140364637Y-67335241D01*
X140164759Y-67135363D01*
X139929727Y-66978320D01*
X139668574Y-66870147D01*
X139391335Y-66815000D01*
X139108665Y-66815000D01*
X138831426Y-66870147D01*
X138570273Y-66978320D01*
X138335241Y-67135363D01*
X138135363Y-67335241D01*
X137978320Y-67570273D01*
X137870147Y-67831426D01*
X137815000Y-68108665D01*
X137815000Y-68391335D01*
X137850843Y-68571527D01*
X137306648Y-69115722D01*
X137277578Y-69139579D01*
X137253721Y-69168649D01*
X137253720Y-69168650D01*
X137182354Y-69255609D01*
X137111598Y-69387986D01*
X137068026Y-69531623D01*
X137053313Y-69681001D01*
X137057000Y-69718434D01*
X137056999Y-86751711D01*
X137022423Y-86709579D01*
X136993353Y-86685722D01*
X136691679Y-86384048D01*
X136735000Y-86166260D01*
X136735000Y-85873740D01*
X136677932Y-85586842D01*
X136565990Y-85316589D01*
X136403475Y-85073368D01*
X136196632Y-84866525D01*
X136022240Y-84750000D01*
X136196632Y-84633475D01*
X136403475Y-84426632D01*
X136565990Y-84183411D01*
X136677932Y-83913158D01*
X136735000Y-83626260D01*
X136735000Y-83333740D01*
X136677932Y-83046842D01*
X136565990Y-82776589D01*
X136403475Y-82533368D01*
X136196632Y-82326525D01*
X136022240Y-82210000D01*
X136196632Y-82093475D01*
X136403475Y-81886632D01*
X136565990Y-81643411D01*
X136677932Y-81373158D01*
X136735000Y-81086260D01*
X136735000Y-80793740D01*
X136677932Y-80506842D01*
X136565990Y-80236589D01*
X136403475Y-79993368D01*
X136196632Y-79786525D01*
X136022240Y-79670000D01*
X136196632Y-79553475D01*
X136403475Y-79346632D01*
X136565990Y-79103411D01*
X136677932Y-78833158D01*
X136735000Y-78546260D01*
X136735000Y-78253740D01*
X136677932Y-77966842D01*
X136565990Y-77696589D01*
X136403475Y-77453368D01*
X136196632Y-77246525D01*
X136022240Y-77130000D01*
X136196632Y-77013475D01*
X136403475Y-76806632D01*
X136565990Y-76563411D01*
X136677932Y-76293158D01*
X136735000Y-76006260D01*
X136735000Y-75713740D01*
X136677932Y-75426842D01*
X136565990Y-75156589D01*
X136403475Y-74913368D01*
X136196632Y-74706525D01*
X136022240Y-74590000D01*
X136196632Y-74473475D01*
X136403475Y-74266632D01*
X136565990Y-74023411D01*
X136677932Y-73753158D01*
X136735000Y-73466260D01*
X136735000Y-73173740D01*
X136677932Y-72886842D01*
X136565990Y-72616589D01*
X136403475Y-72373368D01*
X136196632Y-72166525D01*
X135953411Y-72004010D01*
X135683158Y-71892068D01*
X135396260Y-71835000D01*
X135103740Y-71835000D01*
X134816842Y-71892068D01*
X134546589Y-72004010D01*
X134303368Y-72166525D01*
X134096525Y-72373368D01*
X133980000Y-72547760D01*
X133863475Y-72373368D01*
X133656632Y-72166525D01*
X133413411Y-72004010D01*
X133143158Y-71892068D01*
X132856260Y-71835000D01*
X132563740Y-71835000D01*
X132276842Y-71892068D01*
X132006589Y-72004010D01*
X131763368Y-72166525D01*
X131556525Y-72373368D01*
X131394010Y-72616589D01*
X131282068Y-72886842D01*
X131225000Y-73173740D01*
X131135000Y-73173740D01*
X131135000Y-69239732D01*
X131312835Y-69669064D01*
X131582934Y-70073295D01*
X131926705Y-70417066D01*
X132330936Y-70687165D01*
X132780094Y-70873212D01*
X133256917Y-70968058D01*
X133743083Y-70968058D01*
X134219906Y-70873212D01*
X134669064Y-70687165D01*
X135073295Y-70417066D01*
X135417066Y-70073295D01*
X135687165Y-69669064D01*
X135873212Y-69219906D01*
X135968058Y-68743083D01*
X135968058Y-68256917D01*
X135873212Y-67780094D01*
X135687165Y-67330936D01*
X135417066Y-66926705D01*
X135073295Y-66582934D01*
X134669064Y-66312835D01*
X134239732Y-66135000D01*
X155760268Y-66135000D01*
X155330936Y-66312835D01*
G37*
%TD.AperFunction*%
D19*
X135377000Y-111293000D02*
X135397000Y-111293000D01*
X135397000Y-111547000D01*
X135377000Y-111547000D01*
X135377000Y-111567000D01*
X135123000Y-111567000D01*
X135123000Y-111547000D01*
X135103000Y-111547000D01*
X135103000Y-111293000D01*
X135123000Y-111293000D01*
X135123000Y-111273000D01*
X135377000Y-111273000D01*
X135377000Y-111293000D01*
%TA.AperFunction,Conductor*%
D20*
G36*
X135377000Y-111293000D02*
G01*
X135397000Y-111293000D01*
X135397000Y-111547000D01*
X135377000Y-111547000D01*
X135377000Y-111567000D01*
X135123000Y-111567000D01*
X135123000Y-111547000D01*
X135103000Y-111547000D01*
X135103000Y-111293000D01*
X135123000Y-111293000D01*
X135123000Y-111273000D01*
X135377000Y-111273000D01*
X135377000Y-111293000D01*
G37*
%TD.AperFunction*%
D19*
X148997000Y-105413000D02*
X149017000Y-105413000D01*
X149017000Y-105667000D01*
X148997000Y-105667000D01*
X148997000Y-105687000D01*
X148743000Y-105687000D01*
X148743000Y-105667000D01*
X148723000Y-105667000D01*
X148723000Y-105413000D01*
X148743000Y-105413000D01*
X148743000Y-105393000D01*
X148997000Y-105393000D01*
X148997000Y-105413000D01*
%TA.AperFunction,Conductor*%
D20*
G36*
X148997000Y-105413000D02*
G01*
X149017000Y-105413000D01*
X149017000Y-105667000D01*
X148997000Y-105667000D01*
X148997000Y-105687000D01*
X148743000Y-105687000D01*
X148743000Y-105667000D01*
X148723000Y-105667000D01*
X148723000Y-105413000D01*
X148743000Y-105413000D01*
X148743000Y-105393000D01*
X148997000Y-105393000D01*
X148997000Y-105413000D01*
G37*
%TD.AperFunction*%
%TD*%
M02*
