%TF.GenerationSoftware,KiCad,Pcbnew,5.1.9+dfsg1-1*%
%TF.CreationDate,2021-06-27T14:33:47+01:00*%
%TF.ProjectId,sjspi,736a7370-692e-46b6-9963-61645f706362,v0.3*%
%TF.SameCoordinates,Original*%
%TF.FileFunction,Soldermask,Top*%
%TF.FilePolarity,Negative*%
%FSLAX46Y46*%
G04 Gerber Fmt 4.6, Leading zero omitted, Abs format (unit mm)*
G04 Created by KiCad (PCBNEW 5.1.9+dfsg1-1) date 2021-06-27 14:33:47*
%MOMM*%
%LPD*%
G01*
G04 APERTURE LIST*
%ADD10O,1.701600X1.701600*%
%ADD11C,1.901600*%
%ADD12O,1.801600X1.801600*%
%ADD13C,1.701600*%
%ADD14C,4.101600*%
G04 APERTURE END LIST*
%TO.C,U1*%
G36*
G01*
X140399200Y-103800000D02*
X140399200Y-102200000D01*
G75*
G02*
X140450000Y-102149200I50800J0D01*
G01*
X142050000Y-102149200D01*
G75*
G02*
X142100800Y-102200000I0J-50800D01*
G01*
X142100800Y-103800000D01*
G75*
G02*
X142050000Y-103850800I-50800J0D01*
G01*
X140450000Y-103850800D01*
G75*
G02*
X140399200Y-103800000I0J50800D01*
G01*
G37*
D10*
X148870000Y-125860000D03*
X141250000Y-105540000D03*
X148870000Y-123320000D03*
X141250000Y-108080000D03*
X148870000Y-120780000D03*
X141250000Y-110620000D03*
X148870000Y-118240000D03*
X141250000Y-113160000D03*
X148870000Y-115700000D03*
X141250000Y-115700000D03*
X148870000Y-113160000D03*
X141250000Y-118240000D03*
X148870000Y-110620000D03*
X141250000Y-120780000D03*
X148870000Y-108080000D03*
X141250000Y-123320000D03*
X148870000Y-105540000D03*
X141250000Y-125860000D03*
X148870000Y-103000000D03*
%TD*%
%TO.C,D1*%
G36*
G01*
X159490800Y-78350000D02*
X159490800Y-80150000D01*
G75*
G02*
X159440000Y-80200800I-50800J0D01*
G01*
X157640000Y-80200800D01*
G75*
G02*
X157589200Y-80150000I0J50800D01*
G01*
X157589200Y-78350000D01*
G75*
G02*
X157640000Y-78299200I50800J0D01*
G01*
X159440000Y-78299200D01*
G75*
G02*
X159490800Y-78350000I0J-50800D01*
G01*
G37*
D11*
X156000000Y-79250000D03*
%TD*%
%TO.C,D2*%
X155750000Y-88500000D03*
G36*
G01*
X159240800Y-87600000D02*
X159240800Y-89400000D01*
G75*
G02*
X159190000Y-89450800I-50800J0D01*
G01*
X157390000Y-89450800D01*
G75*
G02*
X157339200Y-89400000I0J50800D01*
G01*
X157339200Y-87600000D01*
G75*
G02*
X157390000Y-87549200I50800J0D01*
G01*
X159190000Y-87549200D01*
G75*
G02*
X159240800Y-87600000I0J-50800D01*
G01*
G37*
%TD*%
%TO.C,D3*%
G36*
G01*
X159450800Y-96850000D02*
X159450800Y-98650000D01*
G75*
G02*
X159400000Y-98700800I-50800J0D01*
G01*
X157600000Y-98700800D01*
G75*
G02*
X157549200Y-98650000I0J50800D01*
G01*
X157549200Y-96850000D01*
G75*
G02*
X157600000Y-96799200I50800J0D01*
G01*
X159400000Y-96799200D01*
G75*
G02*
X159450800Y-96850000I0J-50800D01*
G01*
G37*
X155960000Y-97750000D03*
%TD*%
%TO.C,D4*%
X155960000Y-107000000D03*
G36*
G01*
X159450800Y-106100000D02*
X159450800Y-107900000D01*
G75*
G02*
X159400000Y-107950800I-50800J0D01*
G01*
X157600000Y-107950800D01*
G75*
G02*
X157549200Y-107900000I0J50800D01*
G01*
X157549200Y-106100000D01*
G75*
G02*
X157600000Y-106049200I50800J0D01*
G01*
X159400000Y-106049200D01*
G75*
G02*
X159450800Y-106100000I0J-50800D01*
G01*
G37*
%TD*%
%TO.C,D5*%
G36*
G01*
X159450800Y-115350000D02*
X159450800Y-117150000D01*
G75*
G02*
X159400000Y-117200800I-50800J0D01*
G01*
X157600000Y-117200800D01*
G75*
G02*
X157549200Y-117150000I0J50800D01*
G01*
X157549200Y-115350000D01*
G75*
G02*
X157600000Y-115299200I50800J0D01*
G01*
X159400000Y-115299200D01*
G75*
G02*
X159450800Y-115350000I0J-50800D01*
G01*
G37*
X155960000Y-116250000D03*
%TD*%
%TO.C,J1*%
G36*
G01*
X134349200Y-122430000D02*
X134349200Y-120730000D01*
G75*
G02*
X134400000Y-120679200I50800J0D01*
G01*
X136100000Y-120679200D01*
G75*
G02*
X136150800Y-120730000I0J-50800D01*
G01*
X136150800Y-122430000D01*
G75*
G02*
X136100000Y-122480800I-50800J0D01*
G01*
X134400000Y-122480800D01*
G75*
G02*
X134349200Y-122430000I0J50800D01*
G01*
G37*
D12*
X132710000Y-121580000D03*
X135250000Y-119040000D03*
X132710000Y-119040000D03*
X135250000Y-116500000D03*
X132710000Y-116500000D03*
X135250000Y-113960000D03*
X132710000Y-113960000D03*
X135250000Y-111420000D03*
X132710000Y-111420000D03*
X135250000Y-108880000D03*
X132710000Y-108880000D03*
X135250000Y-106340000D03*
X132710000Y-106340000D03*
X135250000Y-103800000D03*
X132710000Y-103800000D03*
X135250000Y-101260000D03*
X132710000Y-101260000D03*
X135250000Y-98720000D03*
X132710000Y-98720000D03*
X135250000Y-96180000D03*
X132710000Y-96180000D03*
X135250000Y-93640000D03*
X132710000Y-93640000D03*
X135250000Y-91100000D03*
X132710000Y-91100000D03*
X135250000Y-88560000D03*
X132710000Y-88560000D03*
X135250000Y-86020000D03*
X132710000Y-86020000D03*
X135250000Y-83480000D03*
X132710000Y-83480000D03*
X135250000Y-80940000D03*
X132710000Y-80940000D03*
X135250000Y-78400000D03*
X132710000Y-78400000D03*
X135250000Y-75860000D03*
X132710000Y-75860000D03*
X135250000Y-73320000D03*
X132710000Y-73320000D03*
%TD*%
%TO.C,J2*%
G36*
G01*
X165550000Y-92850800D02*
X163950000Y-92850800D01*
G75*
G02*
X163899200Y-92800000I0J50800D01*
G01*
X163899200Y-91200000D01*
G75*
G02*
X163950000Y-91149200I50800J0D01*
G01*
X165550000Y-91149200D01*
G75*
G02*
X165600800Y-91200000I0J-50800D01*
G01*
X165600800Y-92800000D01*
G75*
G02*
X165550000Y-92850800I-50800J0D01*
G01*
G37*
D13*
X164750000Y-94770000D03*
X164750000Y-97540000D03*
X164750000Y-100310000D03*
X164750000Y-103080000D03*
X167590000Y-93385000D03*
X167590000Y-96155000D03*
X167590000Y-98925000D03*
X167590000Y-101695000D03*
D14*
X166170000Y-110040000D03*
X166170000Y-85040000D03*
%TD*%
D13*
%TO.C,R1*%
X151700000Y-74750000D03*
D10*
X139000000Y-74750000D03*
%TD*%
D13*
%TO.C,R2*%
X151700000Y-80500000D03*
D10*
X139000000Y-80500000D03*
%TD*%
%TO.C,R3*%
X139000000Y-86250000D03*
D13*
X151700000Y-86250000D03*
%TD*%
%TO.C,R4*%
X151700000Y-92250000D03*
D10*
X139000000Y-92250000D03*
%TD*%
%TO.C,R5*%
X139000000Y-98000000D03*
D13*
X151700000Y-98000000D03*
%TD*%
%TO.C,R6*%
X151950000Y-68250000D03*
D10*
X139250000Y-68250000D03*
%TD*%
M02*
