%TF.GenerationSoftware,KiCad,Pcbnew,5.1.9+dfsg1-1*%
%TF.CreationDate,2021-05-30T15:35:39+01:00*%
%TF.ProjectId,sjspi,736a7370-692e-46b6-9963-61645f706362,v0.1*%
%TF.SameCoordinates,Original*%
%TF.FileFunction,Legend,Top*%
%TF.FilePolarity,Positive*%
%FSLAX46Y46*%
G04 Gerber Fmt 4.6, Leading zero omitted, Abs format (unit mm)*
G04 Created by KiCad (PCBNEW 5.1.9+dfsg1-1) date 2021-05-30 15:35:39*
%MOMM*%
%LPD*%
G01*
G04 APERTURE LIST*
%ADD10C,0.150000*%
%ADD11C,0.120000*%
G04 APERTURE END LIST*
D10*
X149654761Y-98250000D02*
X149702380Y-98107142D01*
X149702380Y-97869047D01*
X149654761Y-97773809D01*
X149607142Y-97726190D01*
X149511904Y-97678571D01*
X149416666Y-97678571D01*
X149321428Y-97726190D01*
X149273809Y-97773809D01*
X149226190Y-97869047D01*
X149178571Y-98059523D01*
X149130952Y-98154761D01*
X149083333Y-98202380D01*
X148988095Y-98250000D01*
X148892857Y-98250000D01*
X148797619Y-98202380D01*
X148750000Y-98154761D01*
X148702380Y-98059523D01*
X148702380Y-97821428D01*
X148750000Y-97678571D01*
X148702380Y-96964285D02*
X149416666Y-96964285D01*
X149559523Y-97011904D01*
X149654761Y-97107142D01*
X149702380Y-97250000D01*
X149702380Y-97345238D01*
X149654761Y-96535714D02*
X149702380Y-96392857D01*
X149702380Y-96154761D01*
X149654761Y-96059523D01*
X149607142Y-96011904D01*
X149511904Y-95964285D01*
X149416666Y-95964285D01*
X149321428Y-96011904D01*
X149273809Y-96059523D01*
X149226190Y-96154761D01*
X149178571Y-96345238D01*
X149130952Y-96440476D01*
X149083333Y-96488095D01*
X148988095Y-96535714D01*
X148892857Y-96535714D01*
X148797619Y-96488095D01*
X148750000Y-96440476D01*
X148702380Y-96345238D01*
X148702380Y-96107142D01*
X148750000Y-95964285D01*
X149321428Y-95535714D02*
X149321428Y-94773809D01*
X149702380Y-94297619D02*
X148702380Y-94297619D01*
X148702380Y-93916666D01*
X148750000Y-93821428D01*
X148797619Y-93773809D01*
X148892857Y-93726190D01*
X149035714Y-93726190D01*
X149130952Y-93773809D01*
X149178571Y-93821428D01*
X149226190Y-93916666D01*
X149226190Y-94297619D01*
X149702380Y-93297619D02*
X149035714Y-93297619D01*
X148702380Y-93297619D02*
X148750000Y-93345238D01*
X148797619Y-93297619D01*
X148750000Y-93250000D01*
X148702380Y-93297619D01*
X148797619Y-93297619D01*
D11*
%TO.C,D1*%
X156730000Y-84000000D02*
G75*
G03*
X156730000Y-84000000I-2500000J0D01*
G01*
X156790000Y-85545000D02*
X156790000Y-82455000D01*
X151240000Y-83999538D02*
G75*
G03*
X156790000Y-85544830I2990000J-462D01*
G01*
X151240000Y-84000462D02*
G75*
G02*
X156790000Y-82455170I2990000J462D01*
G01*
%TO.C,D2*%
X156790000Y-93545000D02*
X156790000Y-90455000D01*
X156730000Y-92000000D02*
G75*
G03*
X156730000Y-92000000I-2500000J0D01*
G01*
X151240000Y-92000462D02*
G75*
G02*
X156790000Y-90455170I2990000J462D01*
G01*
X151240000Y-91999538D02*
G75*
G03*
X156790000Y-93544830I2990000J-462D01*
G01*
%TO.C,D3*%
X156730000Y-100000000D02*
G75*
G03*
X156730000Y-100000000I-2500000J0D01*
G01*
X156790000Y-101545000D02*
X156790000Y-98455000D01*
X151240000Y-99999538D02*
G75*
G03*
X156790000Y-101544830I2990000J-462D01*
G01*
X151240000Y-100000462D02*
G75*
G02*
X156790000Y-98455170I2990000J462D01*
G01*
%TO.C,D4*%
X144790000Y-121045000D02*
X144790000Y-117955000D01*
X144730000Y-119500000D02*
G75*
G03*
X144730000Y-119500000I-2500000J0D01*
G01*
X139240000Y-119500462D02*
G75*
G02*
X144790000Y-117955170I2990000J462D01*
G01*
X139240000Y-119499538D02*
G75*
G03*
X144790000Y-121044830I2990000J-462D01*
G01*
%TO.C,D5*%
X144730000Y-111500000D02*
G75*
G03*
X144730000Y-111500000I-2500000J0D01*
G01*
X144790000Y-113045000D02*
X144790000Y-109955000D01*
X139240000Y-111499538D02*
G75*
G03*
X144790000Y-113044830I2990000J-462D01*
G01*
X139240000Y-111500462D02*
G75*
G02*
X144790000Y-109955170I2990000J462D01*
G01*
%TO.C,J2*%
X160480000Y-122050000D02*
X156380000Y-122050000D01*
X156380000Y-122050000D02*
X156380000Y-120040000D01*
X156380000Y-120040000D02*
X147240000Y-120040000D01*
X147240000Y-120040000D02*
X147240000Y-106840000D01*
X147240000Y-106840000D02*
X156380000Y-106840000D01*
X156380000Y-106840000D02*
X156380000Y-104830000D01*
X156380000Y-104830000D02*
X160480000Y-104830000D01*
X146545662Y-108150000D02*
X146545662Y-107650000D01*
X146545662Y-107650000D02*
X146978675Y-107900000D01*
X146978675Y-107900000D02*
X146545662Y-108150000D01*
%TO.C,R1*%
X144730000Y-69920000D02*
X144730000Y-68080000D01*
X144730000Y-68080000D02*
X140890000Y-68080000D01*
X140890000Y-68080000D02*
X140890000Y-69920000D01*
X140890000Y-69920000D02*
X144730000Y-69920000D01*
X145680000Y-69000000D02*
X144730000Y-69000000D01*
X139940000Y-69000000D02*
X140890000Y-69000000D01*
%TO.C,R2*%
X139940000Y-73000000D02*
X140890000Y-73000000D01*
X145680000Y-73000000D02*
X144730000Y-73000000D01*
X140890000Y-73920000D02*
X144730000Y-73920000D01*
X140890000Y-72080000D02*
X140890000Y-73920000D01*
X144730000Y-72080000D02*
X140890000Y-72080000D01*
X144730000Y-73920000D02*
X144730000Y-72080000D01*
%TO.C,R3*%
X144610000Y-77920000D02*
X144610000Y-76080000D01*
X144610000Y-76080000D02*
X140770000Y-76080000D01*
X140770000Y-76080000D02*
X140770000Y-77920000D01*
X140770000Y-77920000D02*
X144610000Y-77920000D01*
X145560000Y-77000000D02*
X144610000Y-77000000D01*
X139820000Y-77000000D02*
X140770000Y-77000000D01*
%TO.C,R4*%
X140320000Y-125000000D02*
X141270000Y-125000000D01*
X146060000Y-125000000D02*
X145110000Y-125000000D01*
X141270000Y-125920000D02*
X145110000Y-125920000D01*
X141270000Y-124080000D02*
X141270000Y-125920000D01*
X145110000Y-124080000D02*
X141270000Y-124080000D01*
X145110000Y-125920000D02*
X145110000Y-124080000D01*
%TO.C,R5*%
X145110000Y-128920000D02*
X145110000Y-127080000D01*
X145110000Y-127080000D02*
X141270000Y-127080000D01*
X141270000Y-127080000D02*
X141270000Y-128920000D01*
X141270000Y-128920000D02*
X145110000Y-128920000D01*
X146060000Y-128000000D02*
X145110000Y-128000000D01*
X140320000Y-128000000D02*
X141270000Y-128000000D01*
%TO.C,R6*%
X150820000Y-75500000D02*
X151770000Y-75500000D01*
X156560000Y-75500000D02*
X155610000Y-75500000D01*
X151770000Y-76420000D02*
X155610000Y-76420000D01*
X151770000Y-74580000D02*
X151770000Y-76420000D01*
X155610000Y-74580000D02*
X151770000Y-74580000D01*
X155610000Y-76420000D02*
X155610000Y-74580000D01*
%TO.C,U1*%
X141810000Y-79670000D02*
X140160000Y-79670000D01*
X140160000Y-79670000D02*
X140160000Y-105190000D01*
X140160000Y-105190000D02*
X145460000Y-105190000D01*
X145460000Y-105190000D02*
X145460000Y-79670000D01*
X145460000Y-79670000D02*
X143810000Y-79670000D01*
X143810000Y-79670000D02*
G75*
G02*
X141810000Y-79670000I-1000000J0D01*
G01*
%TO.C,D1*%
D10*
X153491904Y-88412380D02*
X153491904Y-87412380D01*
X153730000Y-87412380D01*
X153872857Y-87460000D01*
X153968095Y-87555238D01*
X154015714Y-87650476D01*
X154063333Y-87840952D01*
X154063333Y-87983809D01*
X154015714Y-88174285D01*
X153968095Y-88269523D01*
X153872857Y-88364761D01*
X153730000Y-88412380D01*
X153491904Y-88412380D01*
X155015714Y-88412380D02*
X154444285Y-88412380D01*
X154730000Y-88412380D02*
X154730000Y-87412380D01*
X154634761Y-87555238D01*
X154539523Y-87650476D01*
X154444285Y-87698095D01*
%TO.C,D2*%
X153491904Y-96412380D02*
X153491904Y-95412380D01*
X153730000Y-95412380D01*
X153872857Y-95460000D01*
X153968095Y-95555238D01*
X154015714Y-95650476D01*
X154063333Y-95840952D01*
X154063333Y-95983809D01*
X154015714Y-96174285D01*
X153968095Y-96269523D01*
X153872857Y-96364761D01*
X153730000Y-96412380D01*
X153491904Y-96412380D01*
X154444285Y-95507619D02*
X154491904Y-95460000D01*
X154587142Y-95412380D01*
X154825238Y-95412380D01*
X154920476Y-95460000D01*
X154968095Y-95507619D01*
X155015714Y-95602857D01*
X155015714Y-95698095D01*
X154968095Y-95840952D01*
X154396666Y-96412380D01*
X155015714Y-96412380D01*
%TO.C,D3*%
X153491904Y-104412380D02*
X153491904Y-103412380D01*
X153730000Y-103412380D01*
X153872857Y-103460000D01*
X153968095Y-103555238D01*
X154015714Y-103650476D01*
X154063333Y-103840952D01*
X154063333Y-103983809D01*
X154015714Y-104174285D01*
X153968095Y-104269523D01*
X153872857Y-104364761D01*
X153730000Y-104412380D01*
X153491904Y-104412380D01*
X154396666Y-103412380D02*
X155015714Y-103412380D01*
X154682380Y-103793333D01*
X154825238Y-103793333D01*
X154920476Y-103840952D01*
X154968095Y-103888571D01*
X155015714Y-103983809D01*
X155015714Y-104221904D01*
X154968095Y-104317142D01*
X154920476Y-104364761D01*
X154825238Y-104412380D01*
X154539523Y-104412380D01*
X154444285Y-104364761D01*
X154396666Y-104317142D01*
%TO.C,D4*%
X141491904Y-123912380D02*
X141491904Y-122912380D01*
X141730000Y-122912380D01*
X141872857Y-122960000D01*
X141968095Y-123055238D01*
X142015714Y-123150476D01*
X142063333Y-123340952D01*
X142063333Y-123483809D01*
X142015714Y-123674285D01*
X141968095Y-123769523D01*
X141872857Y-123864761D01*
X141730000Y-123912380D01*
X141491904Y-123912380D01*
X142920476Y-123245714D02*
X142920476Y-123912380D01*
X142682380Y-122864761D02*
X142444285Y-123579047D01*
X143063333Y-123579047D01*
%TO.C,D5*%
X141491904Y-115912380D02*
X141491904Y-114912380D01*
X141730000Y-114912380D01*
X141872857Y-114960000D01*
X141968095Y-115055238D01*
X142015714Y-115150476D01*
X142063333Y-115340952D01*
X142063333Y-115483809D01*
X142015714Y-115674285D01*
X141968095Y-115769523D01*
X141872857Y-115864761D01*
X141730000Y-115912380D01*
X141491904Y-115912380D01*
X142968095Y-114912380D02*
X142491904Y-114912380D01*
X142444285Y-115388571D01*
X142491904Y-115340952D01*
X142587142Y-115293333D01*
X142825238Y-115293333D01*
X142920476Y-115340952D01*
X142968095Y-115388571D01*
X143015714Y-115483809D01*
X143015714Y-115721904D01*
X142968095Y-115817142D01*
X142920476Y-115864761D01*
X142825238Y-115912380D01*
X142587142Y-115912380D01*
X142491904Y-115864761D01*
X142444285Y-115817142D01*
%TO.C,J2*%
X145952380Y-113773333D02*
X146666666Y-113773333D01*
X146809523Y-113820952D01*
X146904761Y-113916190D01*
X146952380Y-114059047D01*
X146952380Y-114154285D01*
X146047619Y-113344761D02*
X146000000Y-113297142D01*
X145952380Y-113201904D01*
X145952380Y-112963809D01*
X146000000Y-112868571D01*
X146047619Y-112820952D01*
X146142857Y-112773333D01*
X146238095Y-112773333D01*
X146380952Y-112820952D01*
X146952380Y-113392380D01*
X146952380Y-112773333D01*
%TO.C,R1*%
X142643333Y-71372380D02*
X142310000Y-70896190D01*
X142071904Y-71372380D02*
X142071904Y-70372380D01*
X142452857Y-70372380D01*
X142548095Y-70420000D01*
X142595714Y-70467619D01*
X142643333Y-70562857D01*
X142643333Y-70705714D01*
X142595714Y-70800952D01*
X142548095Y-70848571D01*
X142452857Y-70896190D01*
X142071904Y-70896190D01*
X143595714Y-71372380D02*
X143024285Y-71372380D01*
X143310000Y-71372380D02*
X143310000Y-70372380D01*
X143214761Y-70515238D01*
X143119523Y-70610476D01*
X143024285Y-70658095D01*
%TO.C,R2*%
X142643333Y-75372380D02*
X142310000Y-74896190D01*
X142071904Y-75372380D02*
X142071904Y-74372380D01*
X142452857Y-74372380D01*
X142548095Y-74420000D01*
X142595714Y-74467619D01*
X142643333Y-74562857D01*
X142643333Y-74705714D01*
X142595714Y-74800952D01*
X142548095Y-74848571D01*
X142452857Y-74896190D01*
X142071904Y-74896190D01*
X143024285Y-74467619D02*
X143071904Y-74420000D01*
X143167142Y-74372380D01*
X143405238Y-74372380D01*
X143500476Y-74420000D01*
X143548095Y-74467619D01*
X143595714Y-74562857D01*
X143595714Y-74658095D01*
X143548095Y-74800952D01*
X142976666Y-75372380D01*
X143595714Y-75372380D01*
%TO.C,R3*%
X144083333Y-79202380D02*
X143750000Y-78726190D01*
X143511904Y-79202380D02*
X143511904Y-78202380D01*
X143892857Y-78202380D01*
X143988095Y-78250000D01*
X144035714Y-78297619D01*
X144083333Y-78392857D01*
X144083333Y-78535714D01*
X144035714Y-78630952D01*
X143988095Y-78678571D01*
X143892857Y-78726190D01*
X143511904Y-78726190D01*
X144416666Y-78202380D02*
X145035714Y-78202380D01*
X144702380Y-78583333D01*
X144845238Y-78583333D01*
X144940476Y-78630952D01*
X144988095Y-78678571D01*
X145035714Y-78773809D01*
X145035714Y-79011904D01*
X144988095Y-79107142D01*
X144940476Y-79154761D01*
X144845238Y-79202380D01*
X144559523Y-79202380D01*
X144464285Y-79154761D01*
X144416666Y-79107142D01*
%TO.C,R4*%
X148833333Y-125452380D02*
X148500000Y-124976190D01*
X148261904Y-125452380D02*
X148261904Y-124452380D01*
X148642857Y-124452380D01*
X148738095Y-124500000D01*
X148785714Y-124547619D01*
X148833333Y-124642857D01*
X148833333Y-124785714D01*
X148785714Y-124880952D01*
X148738095Y-124928571D01*
X148642857Y-124976190D01*
X148261904Y-124976190D01*
X149690476Y-124785714D02*
X149690476Y-125452380D01*
X149452380Y-124404761D02*
X149214285Y-125119047D01*
X149833333Y-125119047D01*
%TO.C,R5*%
X148833333Y-128452380D02*
X148500000Y-127976190D01*
X148261904Y-128452380D02*
X148261904Y-127452380D01*
X148642857Y-127452380D01*
X148738095Y-127500000D01*
X148785714Y-127547619D01*
X148833333Y-127642857D01*
X148833333Y-127785714D01*
X148785714Y-127880952D01*
X148738095Y-127928571D01*
X148642857Y-127976190D01*
X148261904Y-127976190D01*
X149738095Y-127452380D02*
X149261904Y-127452380D01*
X149214285Y-127928571D01*
X149261904Y-127880952D01*
X149357142Y-127833333D01*
X149595238Y-127833333D01*
X149690476Y-127880952D01*
X149738095Y-127928571D01*
X149785714Y-128023809D01*
X149785714Y-128261904D01*
X149738095Y-128357142D01*
X149690476Y-128404761D01*
X149595238Y-128452380D01*
X149357142Y-128452380D01*
X149261904Y-128404761D01*
X149214285Y-128357142D01*
%TO.C,R6*%
X153523333Y-77872380D02*
X153190000Y-77396190D01*
X152951904Y-77872380D02*
X152951904Y-76872380D01*
X153332857Y-76872380D01*
X153428095Y-76920000D01*
X153475714Y-76967619D01*
X153523333Y-77062857D01*
X153523333Y-77205714D01*
X153475714Y-77300952D01*
X153428095Y-77348571D01*
X153332857Y-77396190D01*
X152951904Y-77396190D01*
X154380476Y-76872380D02*
X154190000Y-76872380D01*
X154094761Y-76920000D01*
X154047142Y-76967619D01*
X153951904Y-77110476D01*
X153904285Y-77300952D01*
X153904285Y-77681904D01*
X153951904Y-77777142D01*
X153999523Y-77824761D01*
X154094761Y-77872380D01*
X154285238Y-77872380D01*
X154380476Y-77824761D01*
X154428095Y-77777142D01*
X154475714Y-77681904D01*
X154475714Y-77443809D01*
X154428095Y-77348571D01*
X154380476Y-77300952D01*
X154285238Y-77253333D01*
X154094761Y-77253333D01*
X153999523Y-77300952D01*
X153951904Y-77348571D01*
X153904285Y-77443809D01*
%TO.C,U1*%
X140988095Y-78122380D02*
X140988095Y-78931904D01*
X141035714Y-79027142D01*
X141083333Y-79074761D01*
X141178571Y-79122380D01*
X141369047Y-79122380D01*
X141464285Y-79074761D01*
X141511904Y-79027142D01*
X141559523Y-78931904D01*
X141559523Y-78122380D01*
X142559523Y-79122380D02*
X141988095Y-79122380D01*
X142273809Y-79122380D02*
X142273809Y-78122380D01*
X142178571Y-78265238D01*
X142083333Y-78360476D01*
X141988095Y-78408095D01*
%TD*%
M02*
